<?xml version="1.0" standalone="no"?>
<!DOCTYPE svg PUBLIC "-//W3C//DTD SVG 1.1//EN" "http://www.w3.org/Graphics/SVG/1.1/DTD/svg11.dtd" >
<svg xmlns="http://www.w3.org/2000/svg" xmlns:xlink="http://www.w3.org/1999/xlink" version="1.1">
<metadata></metadata>
<defs>
<font id="djb_i_love_me_some_alyregular" horiz-adv-x="1155" >
<font-face units-per-em="2048" ascent="1638" descent="-410" />
<missing-glyph horiz-adv-x="797" />
<glyph horiz-adv-x="0" />
<glyph unicode="&#xd;" horiz-adv-x="508" />
<glyph unicode=" "  horiz-adv-x="797" />
<glyph unicode="&#x09;" horiz-adv-x="797" />
<glyph unicode="&#xa0;" horiz-adv-x="797" />
<glyph unicode="!" horiz-adv-x="672" d="M312 56q35 150 150 150q90 0 100 -120q-28 -120 -120 -120q-130 20 -130 90zM322 1626q9 100 60 100l50 -10q90 -824 170 -1020q-21 -160 -130 -160h-20q-88 0 -110 630z" />
<glyph unicode="&#x22;" horiz-adv-x="672" d="M110 1052v40q0 390 200 640h30q36 -19 50 -60q-100 -183 -100 -640q-17 -70 -80 -70h-10q-90 0 -90 90zM410 1152q0 600 120 600h40q80 -7 80 -80l-70 -550q-48 -61 -100 -70q-70 26 -70 100z" />
<glyph unicode="#" horiz-adv-x="1498" d="M99 1070q0 100 170 100q123 -20 165 -25l-20 320q0 74 70 120h40q60 -31 60 -130l-20 -290q270 0 270 50v40l-70 210q28 130 110 130q119 0 140 -340l20 -10l160 24q120 0 130 -70q0 -61 -250 -104q-30 -10 -30 -60v-130l20 -20h30q283 25 310 -70q0 -93 -110 -100 l-180 10q-46 -19 -50 -40v-30l20 -180q0 -62 -80 -100q-93 0 -130 160l10 110l-10 10l-212 -29q-12 12 62 -281q-43 -100 -90 -110q-92 0 -130 370h-10q-58 5 -235 -25q-140 28 -140 110v10q0 78 230 90l115 -5v200h-10l-265 -15q-80 0 -90 100zM614 995q0 -190 4 -194 l245 8q11 -4 11 86v50q0 77 -40 90h-70q-150 0 -150 -40z" />
<glyph unicode="$" horiz-adv-x="1394" d="M131 799q0 49 240 330l20 90v100q0 153 12.5 231.5t47.5 78.5v10q75 0 130 -130l-40 -140v-140l20 -20h10q80 0 80 90v30q0 102 -50 330q0 53 140 70q89 0 74.5 -115t-14.5 -195v-110q530 0 530 -100v-30q0 -83 -136.5 -56.5t-203.5 26.5h-70q-80 0 -80 -90 q22 -464 60 -480q230 -103 230 -149q-2 -94 -170 -261q110 -313 110 -380q-27 -70 -120 -70t-179 421h-93q-20 22 32 -231l-80 -50q-128 0 -150 290q0 90 -190 90q-70 47 -70 110q47 110 130 110l90 -30l20 20v50q0 68 -140 100q-190 153 -190 200zM341 829q37 -74 60 -80 h20l10 70v40l-10 50h-20q-60 -44 -60 -80zM581 899q0 -260 120 -260l20 40q-36 380 -90 380h-10l-40 -40v-120zM611 439q0 -64 70 -100h50l20 20v50q-52 80 -110 80h-10l-20 -20v-30z" />
<glyph unicode="%" horiz-adv-x="1759" d="M268.5 958.5q-26.5 271.5 249.5 363t343.5 -195t-249.5 -363t-343.5 195zM395.5 986.5q16.5 -145.5 194 -99t142 201.5t-194 99t-142 -201.5zM491 -244q47 171 440 920q230 510 380 950l10 10h10q130 -33 130 -70v-20q0 -90 -630 -1410l-110 -400q-71 -60 -110 -60h-20 q-59 0 -100 80zM1059.5 110.5q-26.5 271.5 249.5 363t343.5 -195t-249.5 -363t-343.5 195zM1186.5 138.5q16.5 -145.5 194 -99t142 201.5t-194 99t-142 -201.5z" />
<glyph unicode="&#x26;" horiz-adv-x="3357" d="M110 590l69 150l-63 154q9 48 208 134q119 144 336 537q68 129 163 111q134 -25 200 -668q-6 -30 14 -34l29 -5q199 28 217 122l-14 145q25 129 171 151q102 -19 81 -219q283 -517 454 -615l10 -2l19 48q37 303 46 622q16 84 158 82q108 -20 -51 -866q-41 -216 -169 -192 q-71 39 -528 650l-20 3q-38 -200 -9 -588l-2 -10q-24 -126 -128 -139q-110 21 -44 579q-13 2 -5 82l-8 12l-9 1q-151 9 -166 -70l-2 -10l-15 -241l-2 -10q-45 -144 -136 -127l-10 2q-93 17 -98 181q64 70 73 119l17 88l-16 23l-29 6q-474 25 -503 -129q-39 -206 -182 -210 q-62 12 -56 133zM515 961q59 -11 348 6l1 10q15 76 -77 401l-9 2q-224 -214 -257 -390zM2290 147l60 49l15 79l114 711l4 20q10 51 -18 64l-96 -22q-91 57 -78 126l7 40q6 29 158 82q61 90 127 78q257 -171 331 -185q262 -143 322 -346q-38 -362 -406 -696 q-209 -110 -339 -232l-32 -4q-195 98 -169 236zM2543 191l19 -4q303 151 379.5 273t130.5 323q24 129 -284 277l-137 26z" />
<glyph unicode="'" horiz-adv-x="488" d="M63 1345q90 287 270 500h30q43 -25 60 -70q0 -53 -120 -300q-118 -190 -190 -190q-50 41 -50 60z" />
<glyph unicode="(" horiz-adv-x="820" d="M100 900q0 283 310 660q193 150 260 150q46 -19 50 -40v-20l-330 -370q-110 -184 -110 -310v-120q0 -285 285 -833q65 -107 -135 -107q-83 0 -206.5 383.5t-123.5 606.5z" />
<glyph unicode=")" horiz-adv-x="886" d="M137 1717.5q-12 82.5 90.5 93.5t337.5 -309q280 -339 280 -770q0 -407 -123 -588.5t-267 -251.5q-120 30 -120 110v10q0 77 200 210q130 195 130 500q0 502 -380 780q-136 133 -148 215.5z" />
<glyph unicode="*" horiz-adv-x="1484" d="M47 717q0 128 240 194t310 126v20q-290 106 -290 180q0 111 170 180h10q129 -175 200 -210h30l10 30l-10 210v50q0 150 100 150q90 0 110 -90l-10 -120v-200l10 -50q35 0 310 180l80 10q31 -2 60 -70q0 -124 -290 -230l-70 -60q381 -256 420 -300v-10q0 -104 -90 -130 q-67 0 -380 250q-28 0 -70 -530q-28 -120 -120 -120q-66 0 -100 130q60 155 60 310v160q0 77 -40 90h-20q-259 -75 -480 -210l-60 -10q-61 0 -90 70zM497 130z" />
<glyph unicode="+" horiz-adv-x="1373" d="M91 806q0 50 320 100q187 56 157 107q53 203 93 243.5t90 -10.5l20 -20l-20 -230q178 -20 500 90q64 0 90 -130q0 -120 -370 -120q-230 -43 -213 -83q-9 -87 23 -317v-40q0 -85 -70 -110q-120 0 -120 220q0 240 -50 240h-40l-260 -40q-150 22 -150 100z" />
<glyph unicode="," horiz-adv-x="503" d="M28 -383q0 127 180 190l110 410l70 40q35 0 50 -90q0 -479 -270 -640l-30 -10q-110 17 -110 100z" />
<glyph unicode="-" horiz-adv-x="1423" d="M95 925q30 150 120 150q198 -60 450 -60q364 0 560 100q116 0 160 -130q0 -120 -400 -120q-510 -20 -770 -50q-120 28 -120 110z" />
<glyph unicode="." horiz-adv-x="557" d="M195.5 177.5q-23.5 181.5 226.5 208.5q100 0 100 -170q0 -153 -190 -220q-113 0 -136.5 181.5z" />
<glyph unicode="/" horiz-adv-x="1303" d="M13 110q0 94 270 410q262 372 770 1160q58 50 100 50q104 0 120 -120q0 -40 -210 -220q-763 -1060 -820 -1280q-58 -99 -110 -110q-120 40 -120 110z" />
<glyph unicode="0" horiz-adv-x="1130" d="M101 848v100q41 413 290 510l60 10q138 0 210 -50l-20 -50q1 -21 210 -190q230 -240 221.5 -661.5t-354.5 -443t-481.5 206t-135.5 568.5zM251 888q0 -538 335 -632.5t335 327t-370 615.5q-11 -110 -70 -110q-64 0 -150 140q-70 -49 -80 -340z" />
<glyph unicode="1" horiz-adv-x="1275" d="M27 1035q0 79 260 190q70 38 170 230q81 80 130 80q100 0 100 -820q12 -277 50 -460l418 38q50 -6 50 -60v-110l-30 -30q-349 12 -848 -78q-236 -42 -236 108v10q41 70 120 70q74 -18 236 -18q90 13 90 90l-50 830l-10 30h-30q-279 -200 -360 -200h-20q-40 11 -40 100z " />
<glyph unicode="2" horiz-adv-x="1676" d="M144 1042.5q30 191.5 241.5 321.5t308.5 140q339 -44 309.5 -502t-179.5 -748v-30l100 -10h380l310 10q53 0 60 -130q0 -60 -310 -60h-280q-540 0 -540 100v20q0 48 130 276.5t130 525.5t-80 338h-60q-115 0 -262.5 -216t-217.5 -221.5t-40 186z" />
<glyph unicode="3" horiz-adv-x="1369" d="M57 1382q0 166 450 290q446 47 450 -310l-90 -330h110q350 0 350 -210v-60q0 -397 -216.5 -586t-353.5 -154q-153 44 -185 67t13 111t202 12h10q150 0 300 290q50 84 50 200v30q0 130 -130 130h-40q-195 0 -420 -310l-91 -84q-109 -26 -109 73.5t230 340.5 q160 235 160 390v70q-38 140 -160 140t-390 -170l-60 -10h-30q-23 0 -50 80z" />
<glyph unicode="4" horiz-adv-x="1506" d="M43 550v60q28 910 120 910q88 0 110 -150l-60 -650v-20q0 -80 80 -80h160q380 0 380 60q-50 443 -170 860q0 74 70 120h50q110 -50 110 -270q80 -670 120 -670l50 -10q239 0 349 67q130 -22 130 -110q0 -112 -349 -107q-160 0 -160 -100l70 -300v-20q-64 -157 -130 -110 q-87 0 -110 420v20h-80q-187 0 -620 -40q-120 0 -120 120z" />
<glyph unicode="5" horiz-adv-x="1747" d="M71 1035q70 110 70 400q43 100 110 100q90 -24 90 -160l-10 -230h10q307 0 1300 190q62 0 90 -50v-20q0 -125 -170 -160l-130 30q-1070 -160 -1070 -190l-10 -50q134 -397 830 -170h70q180 0 180 -130q0 -232 -360 -510q-229 -90 -370 -90h-40q-140 0 -140 200 q0 73 70 90q67 0 90 -110l30 -20h40q255 0 460 300l20 70l-30 20h-70l-450 -90q-182 -4 -318 103.5t-212 366.5q-80 44 -80 110z" />
<glyph unicode="6" horiz-adv-x="1492" d="M72 1338.5q0 96.5 130 96.5q77 0 110 -500q93 -480 150 -480h10q310 460 560 460q212 0 390 -370l20 -100q0 -249 -500 -450l-140 -20h-10q-65 0 -310 103l-95 -64q-63 0 -105 121q96 117 40 160q-110 354 -180 650.5t-70 393zM562 285q0 -112 240 -140q323 0 460 270v60 q0 158 -240 260h-10q-216 0 -450 -430v-20z" />
<glyph unicode="7" horiz-adv-x="1481" d="M91 1367q0 110 420 110l570 90q90 -26 90 -80q-40 -271 -40 -510v-70l20 -20h60q257 50 280 -60q0 -120 -160 -120h-160l-10 10q-47 0 -60 -410q-22 -320 -130 -320h-20q-90 0 -110 60q110 331 110 690h-10l-470 -30q-180 0 -180 130v20q37 30 140 30h450l100 -10v370 l-10 120h-10q-201 0 -750 -110q-120 13 -120 110z" />
<glyph unicode="8" horiz-adv-x="1488" d="M85 1072q0 324 500 460h70q219 0 450 -220q60 -62 60 -170q0 -82 -80 -190v-20q1 -14 130 -50q250 -187 250 -370q-48 -180 -450 -380q-246 -110 -440 -110q-310 55 -310 290q0 70 130 320q-310 104 -310 440zM255 1032q0 -158 210 -240h20q27 0 340 180q150 53 150 160 v40q0 50 -50 70h-10q-42 -12 -120 -119l-50 -30q-70 20 -60 199q0 44 -60 70q-370 -57 -370 -330zM445 262q38 -70 150 -70q414 0 700 320v40q-141 200 -270 200h-60q-299 -65 -400 -190q-120 -165 -120 -250v-50z" />
<glyph unicode="9" horiz-adv-x="1308" d="M46.5 711.5q-67.5 213.5 9 453.5t373.5 343q103 30 190 30q263 0 630 -230l10 -40l-30 -410v-310q0 -222 46 -467q-20 -120 -100 -120q-130 0 -130 230l14 227v260l-20 190h-30q-421 -370 -620 -370q-275 0 -342.5 213.5zM193.5 1010.5q-44.5 -342.5 165.5 -342.5h10 q259 0 640 440v50q0 164 -380 220h-20q-371 -25 -415.5 -367.5z" />
<glyph unicode=":" horiz-adv-x="557" d="M134 331q0 104 200 150q78 0 100 -160q0 -103 -170 -160q-130 65 -130 170zM165 948v10q0 170 130 170q78 0 150 -100q-38 -200 -180 -200q-100 0 -100 120z" />
<glyph unicode=";" horiz-adv-x="701" d="M115 192q25 160 150 160q222 0 390 -310l20 -100q-79 -460 -230 -460q-105 0 -130 150q0 21 110 150q40 60 40 120v40q0 124 -120 150h-80q-150 0 -150 100zM165 942q27 160 120 160q160 -44 160 -180v-10q-35 -130 -130 -130h-40q-110 67 -110 160z" />
<glyph unicode="&#x3c;" horiz-adv-x="1226" d="M127 800q0 166 310 200l640 360h30q80 -63 80 -100q0 -31 -240 -150q-460 -275 -460 -320q314 -374 490 -460q37 -50 60 -150q-24 -110 -90 -110h-10q-69 0 -270 270q-362 370 -490 370q-50 54 -50 90z" />
<glyph unicode="=" horiz-adv-x="1113" d="M75 1025q0 90 270 90q418 0 520 -40v-30q0 -100 -290 -100q-254 0 -420 -20q-57 0 -80 100zM165 653q0 130 650 130h90q100 -7 100 -60q0 -103 -680 -150l-80 -10q-80 0 -80 90z" />
<glyph unicode="&#x3e;" horiz-adv-x="1411" d="M87 1230v20q96 120 150 120l180 -120q500 -270 910 -370l50 -50v-20q0 -78 -360 -350q-324 -317 -400 -450l-80 -10q-100 17 -100 90q0 59 580 650v20q0 41 -750 340q-157 98 -180 130z" />
<glyph unicode="?" horiz-adv-x="1163" d="M132 1420v30q65 110 330 110h180q401 0 470 -210l10 -50q0 -266 -400 -550l-20 -60l20 -170q0 -78 -150 -100q-92 0 -120 350q-15 0 -30 120q0 94 350 140q150 96 150 230q0 130 -250 130q-238 0 -480 -50q-60 21 -60 80zM512 150q20 110 110 110h10q120 0 140 -100 q0 -78 -140 -160q-120 43 -120 150z" />
<glyph unicode="@" horiz-adv-x="1675" d="M73 709q0 439 610 800q68 40 270 70q347 0 500 -440l20 -150q0 -260 -370 -490l-120 -40l-130 50h-10q-202 -190 -350 -190q-124 0 -186 228l-54 1q119 -600 327.5 -639t353 0.5t369.5 299.5q48 160 150 160q110 -42 110 -140q0 -150 -326.5 -328.5t-560 -172.5 t-427 226.5t-176.5 754.5zM252 548h56q-1 298 185 521q159 150 330 150q164 0 310 -250q-16 -112 -80 -170v-100l20 -20q79 0 180 180q30 69 30 130q-59 400 -290 400h-110q-216 0 -520 -390q-150 -221 -111 -451zM483 579q0 -54 40 -70h20q155 0 250 360v20q0 77 -40 90 h-40q-150 0 -230 -380v-20z" />
<glyph unicode="A" horiz-adv-x="1345" d="M20 603q0 40 110 120q145 353 320 907q66 70 120 70q231 -8 322.5 -322t116.5 -428l15 -15q160 -26 160 -131l-90 -120l140 -510v-30q0 -70 -70 -70q-116 0 -240 560l-21 64q-226 -14 -643 -165q-30 -142 -30 -290v-90q0 -200 -130 -200q-52 0 -52 194q0 127 22 336z M330 733h30q494 98 494 131v10q-137 556 -234 556q-74 0 -290 -657v-40z" />
<glyph unicode="B" horiz-adv-x="1380" d="M0 1450q0 110 580 200h90q410 0 410 -250q0 -85 -180 -450v-10q360 -55 360 -270q0 -319 -210 -469.5t-328 -165.5q-15 -2 -33 -2q-111 0 -279 87q0 -77 -120 -100q-75 0 -100 220l20 110q0 283 -210 1100zM210 1300q100 -560 130 -560q217 86 440 330q120 166 120 260 v70q0 80 -250 80h-110q-330 -21 -330 -140v-40zM370 440q0 -130 35 -150l225 -90q338 0 450 390v60q-76 120 -240 120q-108 0 -460 -270l-10 -40v-20z" />
<glyph unicode="C" horiz-adv-x="1315" d="M12 976v30q63 559 646 677h40q314 -50 404 -182l10 -10v-10q0 -67 -100 -80l-230 110l-80 10q-462 -46 -511 -539q11 -436 179 -636q155 -185 370 -185q18 -1 36 1q238 16 296 524q13 40 90 40q50 -14 50 -70q0 -479 -330 -650q-49 -11 -102 -11q-184 1 -414 133 q-296 170 -344 688z" />
<glyph unicode="D" horiz-adv-x="1405" d="M-1 1446q0 76 180 180l140 30q612 0 783.5 -202.5t189.5 -520.5q1 -12 0 -24q0 -311 -433 -743q-131 -111 -310 -160h-80q-236 0 -400 1280q-70 105 -70 160zM229 1346q0 -473 290 -1170l10 -10h10q321 129 510 480q91 125 91 308q0 90 -22 194q-66 316 -709 338l-170 10 z" />
<glyph unicode="E" horiz-adv-x="1445" d="M20 1275q0 75 210 280q108 -130 190 -130q196 0 720 110h30q40 -16 40 -70v-30q-142 -140 -541 -161t-399 -49v-190q3 -50 20 -50q684 170 830 171q70 0 70 -71q0 -107 -217.5 -113.5t-702.5 -176.5v-240q13 -130 100 -130h110q170 0 810 70q39 0 70 -40 q-47 -160 -440 -160q-580 -34 -580 -150q0 -180 -110 -190q-100 0 -100 470l-20 640v120q0 16 -70 40z" />
<glyph unicode="F" horiz-adv-x="1262" d="M0 1420l140 190l70 40q26 0 140 -90l40 -10l670 70q70 -17 70 -40v-40q-42 -86 -158.5 -93t-141.5 -7q-250 0 -510 -80v-10l50 -430h20q60 0 800 175h10q30 0 50 -110q0 -85 -270 -100q-590 -122 -590 -175l110 -610q-27 -100 -100 -100h-20q-43 0 -160 680 q-120 0 -120 110q0 46 110 130q0 400 -170 400q-40 66 -40 100z" />
<glyph unicode="G" horiz-adv-x="1294" d="M105 484q-58 188 -58 352q0 191 79 348q146 294 408 343q71 13 131 13q161 0 239 -97q1 -9 1 -17q0 -84 -74 -84q-26 0 -60 10q-66 17 -125 17q-206 0 -330 -203q-101 -164 -101 -360q0 -115 35 -240q94 -339 356 -382q24 -3 46 -3q230 0 361 400v28l-316 -8 q-65 43 -65 89q0 36 41 73l424 8q57 -8 66 -130q-82 -398 -235 -539q-109 -99 -277 -99q-69 0 -148 17q-272 57 -398 464z" />
<glyph unicode="H" horiz-adv-x="1135" d="M0 860v50l100 80l10 50q-20 311 -60 480q0 50 120 80q80 0 80 -300v-330q560 27 560 90l10 60l-40 480q23 130 60 130h20q110 0 110 -180q-1 -78 -1 -144q0 -347 31 -352q83 -31 83 -75t-82 -102l9 -87q50 -401 90 -580q0 -67 -100 -110q-121 0 -140 600q0 120 -70 160 h-30l-490 -40q0 -412 55 -616q16 -58 16 -99q0 -105 -101 -105q-120 0 -120 400q0 430 -100 430z" />
<glyph unicode="I" horiz-adv-x="1485" d="M-8 1428q19 103 107 103h10q75 22 343 38h11q45 0 235 5q222 6 376 42q46 11 82 10q85 0 117 -58v-10q-7 -108 -228 -116l-60 4q-36 1 -67 1q-163 0 -165 -27q19 -1140 63 -1143l39 -23q4 0 9 -1q86 0 466 62q84 -21 84 -88v-8l-1 -20q-7 -99 -284 -99q-60 0 -133 5 l-423 -33l-40 2l-263 -43h-10q-84 54 -84 103q0 121 190 120q18 0 38 -1l210 -14v10v137q0 1022 -72 1027l-483 -40q-56 4 -67 55z" />
<glyph unicode="J" horiz-adv-x="1184" d="M10 1552q0 120 90 120q274 -50 370 -50q800 60 860 65h8q52 0 52 -65v-40q-35 -70 -270 -70l-210 -30v-50l80 -922q-8 -510 -387 -510t-513 370v10q0 82 96 126q17 7 31 7q71 0 93 -183q133 -148 271 -148q30 0 59 6q170 39 170 272q0 605 -150 972q-38 30 -90 30h-190 q-370 0 -370 90z" />
<glyph unicode="K" horiz-adv-x="1382" d="M7 1660q12 127 109 127q23 0 51 -7l42 -48l18 -152q20 -390 80 -430h10q270 61 770 490l60 30q67 0 80 -130q-13 -57 -149.5 -150.5t-620.5 -379.5v-10q210 -243 700 -370q218 -52 250 -120v-20q-28 -60 -120 -60q-385 44 -950 420h-10v-120q21 -310 21 -497 q0 -228 -31 -273l-70 -30q-60 0 -70 80q-60 1415 -160 1580z" />
<glyph unicode="L" horiz-adv-x="1264" d="M49 1603q19 110 105 110q8 1 16 -1q76 -9 77 -217q0 -66 -8 -152q0 -1130 50 -1130l148 18l702 2l30 -10q20 -60 20 -97q0 -44 -30 -53l-990 -50q-80 0 -80 190q0 845 -40 1390z" />
<glyph unicode="M" horiz-adv-x="1888" d="M13 1452v10q0 110 90 110h70l130 110q70 0 358 -590t452 -590q88 81 159 272.5t131 817.5l10 10q0 18 60 50q150 -18 150 -150q140 -642 140 -1290v-30q0 -70 -70 -70q-120 10 -120 40v290q0 670 -50 670q-23 0 -159 -427q-132 -412 -268 -412q-4 0 -10 1 q-142 16 -339.5 307t-383.5 731l-10 10h-10q-43 0 -47 -518v-104q0 -430 27 -568q0 -75 -130 -100q-80 0 -110 700z" />
<glyph unicode="N" horiz-adv-x="1392" d="M-4 1450q23 110 100 110q210 -30 210 -200q60 -365 700 -960l70 -20q20 98 20 290v120l-50 700v50q0 108 110 170h20q78 0 100 -1010v-120q0 -430 -180 -430q-155 45 -740 710q-92 130 -110 130q-26 0 -40 -910q-32 -87 -60 -90h-60q-60 0 -60 210l70 1040q0 48 -100 210 z" />
<glyph unicode="O" horiz-adv-x="1222" d="M0 720v50q0 666 500 880q82 21 153 20q241 0 347 -240q120 -398 120 -650q0 -578 -550 -770l-130 -10q-334 47 -410 440q-30 103 -30 280zM140 660q0 -370 280 -490l90 -10q324 0 460 500v70q-44 650 -183 748q-58 41 -129 40q-97 0 -217 -78q-301 -187 -301 -650v-130z " />
<glyph unicode="P" horiz-adv-x="1178" d="M-2 573q8 67 183 67h15l-20 181v60l-60 500q0 46 97 173t253 127h60q306 1 498 -213q167 -186 167 -362q1 -26 -3 -52q-28 -200 -362 -393q-207 -133 -390 -160l-10 -30l30 -330l-8 -128l-47 -27l-115 -15l-30 10l10 320v10v10q0 122 -48 122h-30l-112 27q-78 8 -78 103z M296 1321q61 -670 120 -670q433 133 560 350q41 57 41 138q0 37 -9 79q-28 134 -322 273q-116 40 -215 40t-175 -210z" />
<glyph unicode="Q" horiz-adv-x="1690" d="M15 746q41 414 275 596.5t540 217.5q24 3 48 3q284 0 587 -387q140 -208 140 -390q0 -207 -250 -440l-10 -40q0 -66 120 -125t120 -115q0 -87 -83 -87q-13 0 -27 2q-110 15 -169.5 97.5t-117.5 87.5l-294 -118q-132 -29 -249 -29q-217 0 -380 100q-250 153 -250 627z M185 736q0 -413 169 -486q145 -63 336 -63q32 0 66 1q231 13 319 138q0 83 -330 490l-20 70q0 30 70 70q100 -16 320 -360q95 -150 110 -150h20q190 165 190 350q0 158 -180 410q-154 156 -321 188q-50 10 -102 10q-121 0 -250 -52q-184 -76 -290.5 -229t-106.5 -357v-30z " />
<glyph unicode="R" horiz-adv-x="1334" d="M-18 1540q0 80 130 80l110 -50h10q153 40 290 40q684 -8 750 -270q2 -15 2 -31q0 -233 -442 -559l-190 -120v-10l610 -260q60 -50 60 -110q-11 -50 -80 -50q-35 0 -620 240q-188 70 -230 70h-40v-40l40 -260q-15 -210 -100 -210q-120 0 -120 520q-109 970 -170 970z M232 1280q40 -520 100 -520h40q371 0 670 430l20 70v40q0 110 -270 150l-160 10q-400 0 -400 -180z" />
<glyph unicode="S" horiz-adv-x="1197" d="M13 387q23 160 130 160q60 0 60 -80l-10 -70q57 -130 510 -160q180 0 180 70q0 37 -450 430q-230 328 -230 500q0 285 520 390h80q320 -29 320 -160v-10q-20 -62 -50 -70h-20q-216 70 -290 70h-60q-330 -40 -330 -230q0 -300 620 -780q85 -85 90 -140 q-104 -240 -420 -240h-50q-247 0 -540 170q-54 64 -60 150z" />
<glyph unicode="T" horiz-adv-x="954" d="M-19 1543q2 107 87 107q11 0 22 -2q107 -15 161 -15h100l820 80q70 -26 70 -100q-83 -76 -560 -120l-70 -10q63 -1082 103 -1356q0 -54 -120 -120q-80 0 -80 660l-46 801q-11 5 -67 5h-280q-140 0 -140 70z" />
<glyph unicode="U" horiz-adv-x="1391" d="M14 805l20 730q0 150 130 180q60 -20 60 -110q-50 -415 -50 -640q42 -730 324 -765q10 -1 21 -1q270 0 475 906q19 610 130 610h20q94 0 110 -130q-60 -384 -60 -630q0 -600 114 -645q68 -27 67 -94q0 -46 -31 -111q-39 -20 -73 -20q-85 1 -131 127q-66 176 -106 403 q-210 -610 -550 -610h-60h-6q-286 0 -394 700z" />
<glyph unicode="V" horiz-adv-x="1270" d="M12 1415q31 90 100 90h20q50 -22 200 -430q358 -760 425 -777q182 711 325 1215q60 162 130 162q84 -17 84 -70q0 -10 -3 -22q-19 -72 -162.5 -537t-197 -753t-131.5 -288l-40 -10q-55 0 -300 500q-450 827 -450 920z" />
<glyph unicode="W" horiz-adv-x="1732" d="M10 1537q0 80 130 110q87 0 240 -690l130 -557h30q182 924 240 1087l60 30q159 0 460 -1027l30 -20l220 997q59 200 160 200q70 0 90 -110l-130 -280q-80 -281 -200 -1057q-48 -160 -140 -160q-80 0 -150 320q-250 837 -300 837q-47 -72 -260 -1167l-10 -10l-30 -20 q-42 -14 -74 -14q-75 0 -96 74v40q0 193 -340 1297q-60 66 -60 120z" />
<glyph unicode="X" horiz-adv-x="1350" d="M26 1498q0 64 90 80h10q63 0 140 -150q158 -225 510 -540h10q104 93 270 560q27 250 100 250l50 10q80 0 80 -110l-170 -460l-200 -320v-20q94 -128 230 -210h10q13 0 50 170l10 10h20q55 0 80 -220v-30q0 -153 -90 -170q-94 0 -400 290h-10q-192 -244 -380 -610l-40 -30 h-40q-53 27 -80 120q0 83 150 210l240 390v20l-570 630z" />
<glyph unicode="Y" horiz-adv-x="1233" d="M-3 1618v20q0 49 90 100q115 -46 430 -480l210 -230q63 41 398 533q122 205 206 207h2q82 0 82 -107l-398 -543q-181 -259 -181 -277q0 -1 1 -1l-7 -392q5 -86 5 -157q0 -333 -105 -333q-80 0 -90 100l20 190v120q-1 485 -26 508q-480 585 -637 742z" />
<glyph unicode="Z" horiz-adv-x="1354" d="M12 150q0 66 817 1332v20l-600 -20q-140 0 -140 120q22 120 120 120l140 -60l180 -10q330 0 450 70q170 -49 170 -110q0 -53 -150 -200q-500 -678 -697 -1092l-10 -50q0 -60 130 -70q436 0 830 130q80 0 90 -100v-10q0 -107 -210 -140l-970 -60q-150 20 -150 130z" />
<glyph unicode="[" horiz-adv-x="1010" d="M23 1326q47 110 210 110h80q550 0 550 -60v-10q0 -85 -530 -120q-60 0 -17 -587v-120q0 -196 40 -340l12 4q428 0 535 -70t-35 -190h-40q-116 90 -260 90h-40l-282 -34q-135 51 -130 270v110q-43 789 -93 947z" />
<glyph unicode="\" horiz-adv-x="1329" d="M13 1610h10q6 120 110 120q43 0 100 -50q508 -788 770 -1160q270 -316 270 -410q0 -70 -120 -110q-52 11 -110 110q-57 220 -820 1280q-210 180 -210 220z" />
<glyph unicode="]" horiz-adv-x="1359" d="M34 1360q0 110 580 110h350q260 0 260 -110v-10q-60 -328 -64 -630q0 -209 90 -490q-56 -170 -170 -170l-700 -60q-75 16 -90 70v10q0 130 170 130q500 0 500 70l10 90l4 950l-870 -60q-44 0 -70 100z" />
<glyph unicode="^" horiz-adv-x="1304" d="M212 1190q0 96 180 200q217 263 280 430q45 40 90 40q150 -22 150 -140q350 -410 350 -490q0 -37 -80 -100h-40q-47 15 -330 380l-60 20q-65 -35 -380 -430l-50 -30h-40q-34 0 -70 120z" />
<glyph unicode="_" horiz-adv-x="2205" d="M0 940q0 150 510 150q460 18 460 140q70 196 70 430q78 110 110 110q130 -49 130 -190q0 -177 100 -370q364 0 650 90q120 0 120 -90q0 -130 -280 -180q-320 -181 -320 -280v-40q0 -149 290 -520l20 -40q0 -82 -130 -150q-73 43 -270 380q-134 180 -240 180 q-108 0 -510 -430l-80 -20q-100 0 -120 130l120 150q150 290 150 320q-219 113 -420 140h-190q-170 0 -170 90zM670 920l20 -20h100q55 0 90 60v20h-60q-150 -10 -150 -50v-10zM870 530h30l110 80v30l-30 30h-10q-72 0 -100 -130v-10zM1000 830q0 -44 170 -50h70 q40 21 40 50q0 200 -120 200q-129 0 -160 -170v-30zM1130 1200l20 -20h10l20 20v90l-20 20q-30 -10 -30 -60v-50zM1410 1010q0 -70 50 -70q120 58 120 110l-10 10h-120l-40 -40v-10z" />
<glyph unicode="`" horiz-adv-x="725" d="M260 1940q17 45 60 70h30q180 -213 270 -500q0 -19 -50 -60q-72 0 -190 190q-120 247 -120 300z" />
<glyph unicode="a" horiz-adv-x="1295" d="M20 603q0 40 110 120q145 353 320 907q66 70 120 70q231 -8 322.5 -322t116.5 -428l15 -15q160 -26 160 -131l-90 -120l140 -510v-30q0 -70 -70 -70q-116 0 -240 560l-21 64q-226 -14 -643 -165q-30 -142 -30 -290v-90q0 -200 -130 -200q-52 0 -52 194q0 127 22 336z M330 733h30q494 98 494 131v10q-137 556 -234 556q-74 0 -290 -657v-40z" />
<glyph unicode="b" horiz-adv-x="1349" d="M-24 1382q83 230 160 230q820 -93 820 -262.5t-170 -507.5q489 -50 490 -289q0 -239 -550 -501q-151 -40 -230 -40q-250 37 -250 170q-73 1140 -200 1140q-23 3 -70 60zM286 1372q67 -660 150 -660q183 88 290 340q40 115 40 200v30q0 120 -340 120h-120q-20 0 -20 -30z M456 292q0 -110 140 -110q224 0 480 300l20 70v20q0 90 -170 90q-470 -41 -470 -280v-90z" />
<glyph unicode="c" horiz-adv-x="1142" d="M2 991v10q0 439 520 610l90 20q170 -27 170 -150q-14 -50 -70 -50l-160 10q-286 0 -390 -350l-10 -110q-1 -29 -1 -58q0 -508 322 -677l80 -20h90q106 0 229.5 165t170.5 165q32 -16 32 -65q0 -70 -66 -205q-111 -230 -350 -246l-34 -2q-221 0 -423 202 q-202 201 -201 675q0 37 1 76z" />
<glyph unicode="d" horiz-adv-x="1146" d="M-10 1533v20q0 150 150 150q86 -50 488 -167t414 -578q0 -576 -450 -870q-135 -70 -220 -70q-96 0 -150 430q-60 226 -172 915q-60 63 -60 170zM210 1453q129 -921 243 -1219q320 24 409 554l10 70q2 32 2 62q0 298 -180 410q-198 124 -364 123h-120z" />
<glyph unicode="e" horiz-adv-x="1200" d="M42 1281q74 341 379 389q24 4 48 3q283 0 590 -513l1 -41q-19 -84 -319 -92q-531 -73 -552 -112q81 -561 382 -690q36 -8 70 -8q184 0 320 238q72 128 107 128h4l29 -6q29 -7 29 -50q0 -63 -62 -203q-104 -236 -496 -274l-80 8q-304 69 -440 591q-44 154 -44 323 q-1 149 34 309zM191 1131l19 -5q571 32 590 113q-151 219 -339 261q-17 4 -34 4q-162 0 -236 -373z" />
<glyph unicode="f" horiz-adv-x="1102" d="M-11 831l100 98l10 110l-20 500q0 30 663 59l220 50q87 0 130 -70v-40q0 -66 -401.5 -76.5t-401.5 -102.5l-20 -190v-60q0 -230 50 -230q286 0 816 170q43 0 70 -120q0 -109 -576 -160q-320 -43 -320 -100v-40q0 -91 110 -480l40 -160l-30 -20h-40q-150 0 -150 150 q-84 580 -160 580q-91 12 -91 111q0 10 1 21z" />
<glyph unicode="g" horiz-adv-x="1411" d="M-8 960v13q0 600 562 683h290q36 0 170 60h10q120 -52 120 -280l130 -670q50 -315 50 -540q0 -830 -470 -830h-30q-131 0 -390 220q67 120 140 120q24 0 200 -140l70 -20q217 0 310 390q16 80 16 173q0 83 -12 177q-27 199 -24 210l-110 -180q-209 -260 -430 -260h-10 q-489 0 -592 874zM199 812q37 -372 295 -515l140 -20h4q222 0 410 477q-68 732 -274 732l-100 10h-8q-305 0 -404 -155q-73 -115 -73 -344q0 -85 10 -185z" />
<glyph unicode="h" horiz-adv-x="1324" d="M-46 979l3 30q5 51 197 65l-5 57l-29 425q7 80 97 80q10 0 21 -1l10 -1q72 -7 72 -152q0 -34 -4 -76v-63q0 -277 16 -277h1q132 -34 372 -34q125 0 280 9l-59 538l1 10q44 65 120 99l10 -1q56 -5 96 -632q4 5 11 5q18 0 60 -34l19 -120l-46 -56l-5 -60l70 -730l-4 -40 q-5 -53 -87 -72q-102 10 -102 237q0 60 7 134l-61 518l-699 37q24 -565 76 -570l89 -8q17 -2 25 -53q-45 -251 -101 -251h-3l-51 -5q-111 10 -120 212l-77 670l-174 67z" />
<glyph unicode="i" horiz-adv-x="508" d="M40 1613v20q0 76 110 130q102 0 140 -160q-15 -80 -80 -80q-88 0 -170 90zM102 1156l1 10q3 44 86 73q155 -12 191 -868q25 -178 25 -293q0 -32 -2 -60q-9 -112 -107 -112q-7 0 -13 1q-71 6 -71 264q0 102 11 243q-25 311 -121 742z" />
<glyph unicode="j" horiz-adv-x="741" d="M-553 -171q28 100 60 100h30q33 -15 90 -180q379 -540 570 -540q179 0 270 380v120q0 605 -250 1580q-58 84 -70 170q0 67 100 80q140 0 140 -230q230 -1185 230 -1540q0 -502 -220 -660q-87 -60 -150 -60q-333 0 -740 610q-60 105 -60 170zM68 1777v40q54 90 120 90 q85 0 130 -140v-30q-29 -50 -60 -50q-109 0 -190 90z" />
<glyph unicode="k" horiz-adv-x="1248" d="M-19 1642q0 100 140 100q80 0 80 -230v-370q151 0 600 430l80 30h30l40 -40v-40q-2 -98 -510 -460l-10 -20q70 -121 630 -310q250 -22 250 -100q0 -70 -110 -80q-162 0 -920 340h-20q0 -182 110 -530l10 -70q0 -350 -120 -350q-67 0 -80 130q0 609 -200 1570z" />
<glyph unicode="l" horiz-adv-x="1006" d="M20 1603q19 110 105 110q9 1 17 -1q76 -9 76 -217q0 -66 -8 -152q0 -1130 50 -1130l148 18l436 55l30 -10q20 -60 20 -97q0 -44 -30 -53l-724 -103q-80 0 -80 190q0 845 -40 1390z" />
<glyph unicode="m" horiz-adv-x="1920" d="M-19 1588q0 80 100 80q90 0 130 -270h40q159 240 300 240q153 0 380 -490h10q206 420 450 420q185 0 317 -620q114 -536 114 -712q0 -28 -3 -47q5 -39 5 -71q0 -161 -117 -161q-58 0 -90 70l10 100v90q0 448 -246 1151l-40 30q-143 0 -254 -471l-10 -100v-100l90 -680 q-16 -90 -90 -90q-132 0 -200 720q-166 674 -326 791q-224 -101 -224 -519v-22v-40q0 -146 130 -760q0 -83 -80 -110q-190 65 -230 790q-80 681 -136 681q-30 35 -30 100z" />
<glyph unicode="n" horiz-adv-x="1362" d="M0 1620q13 80 70 80q107 0 190 -290q137 231 407 231q11 -1 23 -1q288 -10 414 -403t132 -696t24 -373q0 -160 -140 -160h-30l-30 20q-27 964 -143 1198q-110 223 -254 222h-15q-153 -12 -236.5 -115t-91.5 -213q0 -237 110 -990v-10q0 -77 -120 -120q-144 0 -220 1280 q-90 257 -90 340z" />
<glyph unicode="o" horiz-adv-x="1196" d="M0 720v50q0 666 500 880l160 30h20q231 0 320 -250q120 -398 120 -650q0 -578 -550 -770l-130 -10q-334 47 -410 440q-30 103 -30 280zM140 660q0 -370 280 -490l90 -10q324 0 460 500v70q-44 650 -182 753q-57 43 -124 43q-96 0 -214 -86q-310 -187 -310 -650v-130z" />
<glyph unicode="p" horiz-adv-x="1275" d="M-2 573q8 67 183 67h15l-20 181v60l-60 500q0 46 97 173t253 127h60q307 0 498 -213q167 -186 167 -362q0 -27 -3 -52q-29 -201 -362 -393q-207 -133 -390 -160l-10 -30l30 -330l-8 -128l-47 -27l-115 -15l-30 10l10 320v10v10q0 122 -48 122h-30l-112 27q-78 8 -78 103z M296 1321q61 -670 120 -670q433 133 560 350q41 57 41 138q0 37 -9 79q-28 134 -322 273q-116 40 -215 40t-175 -210z" />
<glyph unicode="q" horiz-adv-x="1709" d="M15 746v23q0 290 218 524q227 243 575 248h16q338 0 534 -209q201 -215 224 -484q2 -22 2 -44q0 -247 -239 -498q0 -66 120 -125t120 -115q0 -87 -83 -87q-13 0 -27 2q-110 15 -169.5 97.5t-117.5 87.5l-294 -118q-132 -29 -249 -29q-217 0 -380 100q-250 153 -250 627z M185 736q0 -413 169 -486q145 -63 336 -63q32 0 66 1q231 13 319 138q0 83 -330 490l-20 70q0 30 70 70q100 -16 320 -360q95 -150 110 -150h20q169 147 169 359q0 25 -2 52q-23 246 -173 382t-413 155q-21 2 -42 2q-236 0 -410 -204q-189 -222 -189 -426v-30z" />
<glyph unicode="r" horiz-adv-x="1362" d="M-18 1540q0 80 130 80l110 -50h10q153 40 290 40q684 -8 750 -270q2 -15 2 -31q0 -233 -442 -559l-190 -120v-10l610 -260q60 -50 60 -110q-11 -50 -80 -50q-35 0 -620 240q-188 70 -230 70h-40v-40l40 -260q-15 -210 -100 -210q-120 0 -120 520q-109 970 -170 970z M232 1280q40 -520 100 -520h40q371 0 670 430l20 70v40q0 110 -270 150l-160 10q-400 0 -400 -180z" />
<glyph unicode="s" horiz-adv-x="1221" d="M13 1229v6q0 346 585 408q156 0 430 -100q30 -40 30 -90q0 -65 -50 -90h-40q-226 110 -350 110h-80q-302 0 -340 -240l-10 -40q8 -223 415 -546t475 -347q54 -19 54 -92q0 -20 -4 -44q-18 -112 -450 -161q-530 48 -530 150v10q0 77 67 77q20 0 47 -7q114 -30 160 -37.5 t306 -22.5q80 10 80 30q-14 43 -402 359t-393 667z" />
<glyph unicode="t" horiz-adv-x="1189" d="M-30 1126v10q0 90 146 106l220 -10q22 590 80 590h20q114 0 140 -90q-50 -89 -50 -470v-10h10q23 -2 48 -2q135 0 350 58q140 -18 140 -120v-9q0 -66 -89 -66h-13q-108 5 -168 5l-278 -16q-5 -65 -5 -129q0 -263 81 -525q102 -328 216 -332h4q113 0 269 222l60 20l20 -20 v-20q0 -127 -70 -211q-70 -83 -161 -131q-47 -24 -107 -25q-57 0 -125 22q-142 45 -246 374.5t-120 721.5l-16 3q-73 -3 -130 -3q-216 0 -216 47z" />
<glyph unicode="u" horiz-adv-x="1457" d="M13 1415q0 150 130 180q60 -20 60 -110q-29 -295 -29 -520q42 -730 324 -765q10 -1 21 -1q270 0 475 906v17q0 473 109 473h20q94 0 110 -130q-39 -264 -39 -510q0 -600 114 -645q68 -27 67 -94q0 -46 -31 -111q-26 -13 -52 -13q-109 0 -208 243q-5 280 -50 280 q-210 -610 -550 -610h-60h-6q-286 0 -394 700l-10 100z" />
<glyph unicode="v" horiz-adv-x="1270" d="M12 1415q31 90 100 90h20q50 -22 200 -430q358 -760 425 -777q25 279 143.5 658t181.5 659q60 60 130 60q84 -17 84 -70q0 -10 -3 -22q-19 -72 -62 -140t-209 -638q-142 -800 -220 -800l-40 -10q-55 0 -300 500q-450 827 -450 920z" />
<glyph unicode="w" horiz-adv-x="1732" d="M10 1537q0 80 130 110q87 0 240 -690l130 -557h30q182 924 240 1087l60 30q159 0 460 -1027l30 -20l220 997q59 200 160 200q70 0 90 -110l-130 -280q-80 -281 -200 -1057q-48 -160 -140 -160q-80 0 -150 320q-250 837 -300 837q-47 -72 -260 -1167l-10 -10l-30 -20 q-42 -14 -74 -14q-75 0 -96 74v40q0 193 -340 1297q-60 66 -60 120z" />
<glyph unicode="x" horiz-adv-x="1350" d="M26 1498q0 64 90 80h10q63 0 140 -150q158 -225 510 -540h10q104 93 270 560q27 250 100 250l50 10q80 0 80 -110l-170 -460l-200 -320v-20q94 -128 230 -210h10q13 0 50 170l10 10h20q55 0 80 -220v-30q0 -153 -90 -170q-94 0 -400 290h-10q-192 -244 -380 -610l-40 -30 h-40q-53 27 -80 120q0 83 150 210l240 390v20l-570 630z" />
<glyph unicode="y" horiz-adv-x="1324" d="M-9 1377q0 37 110 60q100 -26 100 -130l-40 -290q0 -570 131 -715q102 -112 280 -112q51 0 109 9q257 42 320 428q-103 848 -103 981q0 100 80 100h3q136 0 187 -842q29 -491 29 -768q0 -203 -16 -291q-111 -940 -390 -940q-290 0 -370 460v10q0 140 90 140q29 0 90 -260 q93 -180 170 -180q177 60 270 1140l-20 20q-37 -70 -189 -158q-94 -55 -250 -55q-93 0 -207 20q-306 52 -345 547t-39 826z" />
<glyph unicode="z" horiz-adv-x="1354" d="M12 150q0 66 780 1245v20l-600 -20q-140 0 -140 120q22 120 120 120l140 -60l180 -10q330 0 450 70q170 -49 170 -110q0 -53 -150 -200q-463 -591 -660 -1005l-10 -50q0 -60 130 -70q436 0 830 130q80 0 90 -100v-10q0 -107 -210 -140l-970 -60q-150 20 -150 130z" />
<glyph unicode="{" horiz-adv-x="830" d="M47 739q0 77 190 230l-130 230l-10 70q0 203 127.5 344t222.5 196q139 0 200 -100v-30q-320 -253 -320 -380v-70q0 -70 210 -110q170 0 170 -250l40 -100q0 -111 -270 -260q-40 -86 -40 -250q71 -190 200 -190q70 -70 70 -130q0 -74 -130 -90q-127 0 -237 153.5 t-63 616.5l-10 10l-80 -10q-140 0 -140 120z" />
<glyph unicode="|" horiz-adv-x="1842" d="M120 1292q49 310 109 310q23 37 119 37q275 0 520 -328q0 -61 82 -110h9q470 512 675 575q173 -95 173 -247q-14 -259 -538 -1130l-219 -438q-76 -73 -118 -73q-107 0 -174 173q-559 656 -629 1122zM302 1256l19 -210h18q45 319 146 319q91 0 91 28q0 33 -155 63h-37 q-82 0 -82 -109v-91zM457 782q28 0 37 73h-9q-28 -10 -28 -55v-18zM585 526l46 -45q25 0 36 91q-70 0 -82 -37v-9zM667 1001h9q82 77 82 173v9q0 49 -36 64h-9q-25 0 -46 -246zM859 235q29 -64 82 -64l27 27v27l-109 28v-18zM1123 499l9 -9h9q322 504 429 784q55 144 55 228 v9l-37 37h-36q-106 0 -292 -493v-9q0 -41 55 -91z" />
<glyph unicode="}" horiz-adv-x="1014" d="M173 1680v30q46 80 160 80q470 -98 470 -300q0 -128 -240 -380v-20h60q180 -10 180 -120l-30 -90v-30q160 -152 160 -340q0 -277 -290 -550l-40 -20q-120 55 -120 140q0 122 190 200q70 115 70 180v50q0 120 -90 120h-10l-280 -10q-87 0 -160 120q0 20 100 110l10 30 q-120 62 -120 130q21 104 330 310q60 97 60 130v30q0 66 -360 140z" />
<glyph unicode="~" horiz-adv-x="1656" d="M102 1049v10q0 148 270 320l110 20q168 0 460 -170q65 -30 160 -30q132 0 360 220h40q97 0 120 -160v-10q0 -151 -530 -260h-10q-136 0 -540 200h-60q-119 0 -160 -170q-51 -70 -120 -70q-100 27 -100 100z" />
<glyph unicode="&#xa1;" horiz-adv-x="672" d="M312 996q21 160 130 160h20q88 0 110 -630l20 -460q-9 -100 -60 -100l-50 10v30l20 40q-110 754 -190 950zM352 1606q28 120 120 120q130 -20 130 -90q-35 -150 -150 -150q-90 0 -100 120z" />
<glyph unicode="&#xa2;" horiz-adv-x="1109" d="M3 931l2 10q95 428 639 484h92q161 -63 134 -183q-24 -46 -79 -34l-154 44q-279 62 -456 -258l-33 -105q-57 -195 236 -443l74 -37l88 -19q104 -23 220 37q122 75 168 65q35 -23 32 -38q-207 -285 -466 -228q-313 69 -430 300t-67 405zM305 144l96 450q226 1091 313 1076 l20 -3q107 -18 102 -179q-112 -180 -445 -1379l13 -42l-5 -30l-51 -2q-50 9 -43 109z" />
<glyph unicode="&#xa3;" horiz-adv-x="1289" d="M35 686q26 131 105 131q173 -52 393 -52q318 0 489 87q101 0 140 -114q0 -104 -350 -104q-445 -18 -672 -44q-105 24 -105 96zM247 79l37 125l30 30v50l-42 737q8 510 387 510t513 -370v-10q0 -82 -96.5 -126t-123.5 176q-161 180 -330.5 141.5t-169.5 -271.5 q0 -605 112 -787q38 -30 90 -30h190q370 0 370 -90q0 -120 -90 -120q-274 50 -370 50z" />
<glyph unicode="&#xa4;" horiz-adv-x="1014" />
<glyph unicode="&#xa5;" horiz-adv-x="1262" />
<glyph unicode="&#xa6;" horiz-adv-x="470" d="M118 1479q0 57 100 80q90 0 90 -270q13 -267 -27 -369h-30q-100 0 -100 290q-13 103 -33 269zM142 627q0 80 90 80q130 0 100 -404v-90q-7 -100 -60 -100q-103 0 -120 434z" />
<glyph unicode="&#xa7;" horiz-adv-x="1271" d="M88 882.5q20 377.5 109 297.5t51 -320l-10 -40q8 -223 390 -359.5t450.5 -160.5t50 -136t-450.5 -161q-530 48 -530 150v10q0 100 114 70t160 -37.5t306 -22.5q80 10 80 30q-14 43 -377 172.5t-343 507zM101 1297q-5 351 585 414q156 0 430 -100q30 -40 30 -90 q0 -65 -50 -90h-40q-226 110 -350 110h-80q-302 0 -340 -240l-10 -40q8 -223 390 -359.5t450.5 -160.5t50 -136t-450.5 -161q-530 48 -530 150v10q0 100 114 70t160 -37.5t306 -22.5q80 10 80 30q-14 43 -377 172.5t-368 480.5z" />
<glyph unicode="&#xa8;" horiz-adv-x="703" d="M13 1970q0 71 158 89q63 0 63 -108q0 -97 -120 -139q-71 0 -101 158zM402 1963q0 72 158 89q64 0 64 -107q0 -97 -121 -140q-71 0 -101 158z" />
<glyph unicode="&#xa9;" horiz-adv-x="1674" />
<glyph unicode="&#xaa;" horiz-adv-x="648" />
<glyph unicode="&#xab;" horiz-adv-x="1894" d="M127 800q0 166 310 200l640 360h30q80 -63 80 -100q0 -31 -240 -150q-460 -275 -460 -320q314 -374 490 -460q37 -50 60 -150q-24 -110 -90 -110h-10q-69 0 -270 270q-362 370 -490 370q-50 54 -50 90zM782 744q0 166 310 200l640 360h30q80 -63 80 -100q0 -31 -240 -150 q-460 -275 -460 -320q314 -374 490 -460q37 -50 60 -150q-24 -110 -90 -110h-10q-69 0 -270 270q-362 370 -490 370q-50 54 -50 90z" />
<glyph unicode="&#xac;" horiz-adv-x="1014" />
<glyph unicode="&#xad;" horiz-adv-x="1423" d="M95 925q30 150 120 150q198 -60 450 -60q364 0 560 100q116 0 160 -130q0 -120 -400 -120q-510 -20 -770 -50q-120 28 -120 110z" />
<glyph unicode="&#xae;" horiz-adv-x="1674" />
<glyph unicode="&#xaf;" horiz-adv-x="1312" d="M160 1810q24 109 98 109q161 -44 366 -44q296 0 455 73q94 0 130 -94q0 -88 -325 -88q-415 -14 -626 -36q-98 20 -98 80z" />
<glyph unicode="&#xb0;" horiz-adv-x="674" d="M161 1885v4q0 131 159 259l32 14q19 0 45 -64q87 -62 87 -113q0 -115 -168 -205l-41 -9q-114 18 -114 114zM229 1889q0 -8 32 -27h32q82 0 114 109v5q-22 41 -50 41h-5q-25 -32 -82 -32q-41 -65 -41 -96z" />
<glyph unicode="&#xb1;" horiz-adv-x="1373" d="M66 113q30 150 120 150q198 -60 450 -60q364 0 560 100q116 0 160 -130q0 -120 -400 -120q-510 -20 -770 -50q-120 28 -120 110zM91 806q0 50 320 100q187 56 157 107q53 203 93 243.5t90 -10.5l20 -20l-20 -230q178 -20 500 90q64 0 90 -130q0 -120 -370 -120 q-230 -43 -213 -83q-9 -87 23 -317v-40q0 -85 -70 -110q-120 0 -120 220q0 240 -50 240h-40l-260 -40q-150 22 -150 100z" />
<glyph unicode="&#xb2;" horiz-adv-x="1014" />
<glyph unicode="&#xb3;" horiz-adv-x="1014" />
<glyph unicode="&#xb4;" horiz-adv-x="386" d="M37 1613q90 287 270 500h30q43 -25 60 -70q0 -53 -120 -300q-118 -190 -190 -190q-50 41 -50 60z" />
<glyph unicode="&#xb5;" horiz-adv-x="1180" />
<glyph unicode="&#xb6;" horiz-adv-x="1024" />
<glyph unicode="&#xb7;" horiz-adv-x="508" d="M104.5 1441.5q-23.5 181.5 226.5 208.5q100 0 100 -170q0 -153 -190 -220q-113 0 -136.5 181.5z" />
<glyph unicode="&#xb8;" horiz-adv-x="701" d="M103 -360q0 73 110 73h59q89 19 89 111v29q0 44 -30 88q-59 95 -59 111q-3 110 74 110q111 0 169 -338l-15 -74q-123 -228 -287 -228q-92 0 -110 118z" />
<glyph unicode="&#xb9;" horiz-adv-x="1014" />
<glyph unicode="&#xba;" horiz-adv-x="718" />
<glyph unicode="&#xbb;" horiz-adv-x="1924" d="M127 1204q0 37 80 100h30l640 -360q310 -34 310 -200q0 -36 -50 -90q-128 0 -490 -370q-201 -270 -270 -270h-10q-66 0 -90 110q23 100 60 150q176 86 490 460q0 45 -460 320q-240 119 -240 150zM782 1260q0 37 80 100h30l640 -360q310 -34 310 -200q0 -36 -50 -90 q-128 0 -490 -370q-201 -270 -270 -270h-10q-66 0 -90 110q23 100 60 150q176 86 490 460q0 45 -460 320q-240 119 -240 150z" />
<glyph unicode="&#xbc;" horiz-adv-x="1708" />
<glyph unicode="&#xbd;" horiz-adv-x="1964" />
<glyph unicode="&#xbe;" horiz-adv-x="1708" />
<glyph unicode="&#xbf;" horiz-adv-x="1163" d="M132 260q0 266 400 550l20 60l-20 170q0 78 150 100q92 0 120 -350q15 0 30 -120q0 -94 -350 -140q-150 -96 -150 -230q0 -130 250 -130q238 0 480 50q60 -21 60 -80v-30q-65 -110 -330 -110h-180q-401 0 -470 210zM482 1400q0 78 140 160q120 -43 120 -150 q-20 -110 -110 -110h-10q-120 0 -140 100z" />
<glyph unicode="&#xc0;" horiz-adv-x="1253" d="M20 603q0 40 110 120q145 353 320 907q66 70 120 70q231 -8 322.5 -322t116.5 -428l15 -15q160 -26 160 -131l-90 -120l140 -510v-30q0 -70 -70 -70q-116 0 -240 560l-21 64q-226 -14 -643 -165q-30 -142 -30 -290v-90q0 -200 -130 -200q-86 0 -30 530zM225 1972 q-1 48 30 87l28 11q170 -25 359 -258q7 -18 -24 -74q-67 -27 -247 106q-126 79 -146 128zM330 733h30q494 98 494 131v10q-137 556 -234 556q-74 0 -290 -657v-40z" />
<glyph unicode="&#xc1;" horiz-adv-x="1253" d="M20 603q0 40 110 120q145 353 320 907q66 70 120 70q231 -8 322.5 -322t116.5 -428l15 -15q160 -26 160 -131l-90 -120l140 -510v-30q0 -70 -70 -70q-116 0 -240 560l-21 64q-226 -14 -643 -165q-30 -142 -30 -290v-90q0 -200 -130 -200q-86 0 -30 530zM330 733h30 q494 98 494 131v10q-137 556 -234 556q-74 0 -290 -657v-40zM540 1843q189 233 359 258l28 -11q30 -39 30 -87q-20 -49 -146 -128q-180 -133 -247 -106q-31 56 -24 74z" />
<glyph unicode="&#xc2;" horiz-adv-x="1253" d="M20 603q0 40 110 120q145 353 320 907q66 70 120 70q231 -8 322.5 -322t116.5 -428l15 -15q160 -26 160 -131l-90 -120l140 -510v-30q0 -70 -70 -70q-116 0 -240 560l-21 64q-226 -14 -643 -165q-30 -142 -30 -290v-90q0 -200 -130 -200q-86 0 -30 530zM313 1867 q0 61 113 126q47 38 87 143q28 25 56 25q94 -14 94 -88q174 -168 174 -218q0 -23 -50 -63h-25q-30 9 -162 149l-37 13q-41 -22 -150 -143l-31 -19h-25q-21 0 -44 75zM330 733h30q494 98 494 131v10q-137 556 -234 556q-74 0 -290 -657v-40z" />
<glyph unicode="&#xc3;" horiz-adv-x="1253" d="M20 603q0 40 110 120q145 353 320 907q66 70 120 70q231 -8 322.5 -322t116.5 -428l15 -15q160 -26 160 -131l-90 -120l140 -510v-30q0 -70 -70 -70q-116 0 -240 560l-21 64q-226 -14 -643 -165q-30 -142 -30 -290v-90q0 -200 -130 -200q-86 0 -30 530zM167 1796v6 q0 89 164 194l67 12q101 0 279 -103q39 -18 97 -18q80 0 218 133h24q59 0 73 -97v-6q0 -92 -321 -158h-7q-82 0 -327 121h-36q-73 0 -98 -103q-30 -42 -72 -42q-61 16 -61 61zM330 733h30q494 98 494 131v10q-137 556 -234 556q-74 0 -290 -657v-40z" />
<glyph unicode="&#xc4;" horiz-adv-x="1253" d="M20 603q0 40 110 120q145 353 320 907q66 70 120 70q231 -8 322.5 -322t116.5 -428l15 -15q160 -26 160 -131l-90 -120l140 -510v-30q0 -70 -70 -70q-116 0 -240 560l-21 64q-226 -14 -643 -165q-30 -142 -30 -290v-90q0 -200 -130 -200q-86 0 -30 530zM241 1981 q0 71 158 89q63 0 63 -108q0 -97 -120 -139q-71 0 -101 158zM330 733h30q494 98 494 131v10q-137 556 -234 556q-74 0 -290 -657v-40zM630 1974q0 72 158 89q64 0 64 -107q0 -97 -121 -140q-71 0 -101 158z" />
<glyph unicode="&#xc5;" horiz-adv-x="1253" d="M20 603q0 40 110 120q145 353 320 907q66 70 120 70q231 -8 322.5 -322t116.5 -428l15 -15q160 -26 160 -131l-90 -120l140 -510v-30q0 -70 -70 -70q-116 0 -240 560l-21 64q-226 -14 -643 -165q-30 -142 -30 -290v-90q0 -200 -130 -200q-86 0 -30 530zM330 733h30 q494 98 494 131v10q-137 556 -234 556q-74 0 -290 -657v-40zM405 1808v4q0 131 159 259l32 14q19 0 45 -64q87 -62 87 -113q0 -115 -168 -205l-41 -9q-114 18 -114 114zM473 1812q0 -8 32 -27h32q82 0 114 109v5q-22 41 -50 41h-5q-25 -32 -82 -32q-41 -65 -41 -96z" />
<glyph unicode="&#xc6;" horiz-adv-x="2296" d="M20 603q0 40 110 120q145 353 320 907q66 70 120 70q231 -8 322.5 -322t116.5 -428l15 -15q160 -26 160 -131l-90 -120l140 -510v-30q0 -70 -70 -70q-116 0 -240 560l-21 64q-226 -14 -643 -165q-30 -142 -30 -290v-90q0 -200 -130 -200q-86 0 -30 530zM330 733h30 q494 98 494 131v10q-137 556 -234 556q-74 0 -290 -657v-40zM959 1285q0 75 210 280q108 -130 190 -130q196 0 720 110h30q40 -16 40 -70v-30q-142 -140 -541 -161t-399 -49v-190q3 -50 20 -50q684 170 830 170q70 0 70 -70q0 -107 -217.5 -113.5t-702.5 -176.5v-240 q13 -130 100 -130h110q170 0 810 70q39 0 70 -40q-47 -160 -440 -160q-580 -34 -580 -150q0 -180 -110 -190q-100 0 -100 470l-20 640v120q0 16 -70 40z" />
<glyph unicode="&#xc7;" horiz-adv-x="1240" d="M12 976v30q63 559 646 677h40q314 -50 404 -182l10 -10v-10q0 -67 -100 -80l-230 110l-80 10q-462 -46 -511 -539q11 -435 178.5 -635.5t406 -184t296.5 523.5q13 40 90 40q50 -14 50 -70q0 -479 -330 -650q-220 -49 -516 121.5t-344 688.5zM495 -360q0 73 110 73h59 q89 19 89 111v29q0 44 -30 88q-59 95 -59 111q-3 110 74 110q111 0 169 -338l-15 -74q-123 -228 -287 -228q-92 0 -110 118z" />
<glyph unicode="&#xc8;" horiz-adv-x="1339" d="M0 1320q0 75 210 280q108 -130 190 -130q196 0 720 110h30q40 -16 40 -70v-30q-142 -140 -541 -161t-399 -49v-190q3 -50 20 -50q684 170 830 170q70 0 70 -70q0 -107 -217.5 -113.5t-702.5 -176.5v-240q13 -130 100 -130h110q170 0 810 70q39 0 70 -40 q-47 -160 -440 -160q-580 -34 -580 -150q0 -180 -110 -190q-100 0 -100 470l-20 640v120q0 16 -70 40zM225 1972q-1 48 30 87l28 11q170 -25 359 -258q7 -18 -24 -74q-67 -27 -247 106q-126 79 -146 128z" />
<glyph unicode="&#xc9;" horiz-adv-x="1339" d="M0 1320q0 75 210 280q108 -130 190 -130q196 0 720 110h30q40 -16 40 -70v-30q-142 -140 -541 -161t-399 -49v-190q3 -50 20 -50q684 170 830 170q70 0 70 -70q0 -107 -217.5 -113.5t-702.5 -176.5v-240q13 -130 100 -130h110q170 0 810 70q39 0 70 -40 q-47 -160 -440 -160q-580 -34 -580 -150q0 -180 -110 -190q-100 0 -100 470l-20 640v120q0 16 -70 40zM551 1683q189 233 359 258l28 -11q30 -39 30 -87q-20 -49 -146 -128q-180 -133 -247 -106q-31 56 -24 74z" />
<glyph unicode="&#xca;" horiz-adv-x="1339" d="M0 1320q0 75 210 280q108 -130 190 -130q196 0 720 110h30q40 -16 40 -70v-30q-142 -140 -541 -161t-399 -49v-190q3 -50 20 -50q684 170 830 170q70 0 70 -70q0 -107 -217.5 -113.5t-702.5 -176.5v-240q13 -130 100 -130h110q170 0 810 70q39 0 70 -40 q-47 -160 -440 -160q-580 -34 -580 -150q0 -180 -110 -190q-100 0 -100 470l-20 640v120q0 16 -70 40zM298 1719q0 61 113 126q47 38 87 143q28 25 56 25q94 -14 94 -88q174 -168 174 -218q0 -23 -50 -63h-25q-30 9 -162 149l-37 13q-41 -22 -150 -143l-31 -19h-25 q-21 0 -44 75z" />
<glyph unicode="&#xcb;" horiz-adv-x="1339" d="M0 1320q0 75 210 280q108 -130 190 -130q196 0 720 110h30q40 -16 40 -70v-30q-142 -140 -541 -161t-399 -49v-190q3 -50 20 -50q684 170 830 170q70 0 70 -70q0 -107 -217.5 -113.5t-702.5 -176.5v-240q13 -130 100 -130h110q170 0 810 70q39 0 70 -40 q-47 -160 -440 -160q-580 -34 -580 -150q0 -180 -110 -190q-100 0 -100 470l-20 640v120q0 16 -70 40zM279 1867q0 71 158 89q63 0 63 -108q0 -97 -120 -139q-71 0 -101 158zM668 1860q0 72 158 89q64 0 64 -107q0 -97 -121 -140q-71 0 -101 158z" />
<glyph unicode="&#xcc;" horiz-adv-x="1429" d="M-20 1476q20 109 117 103q75 22 343 38q25 -1 342 19l30 -2q96 -6 250 29.5t199 -47.5v-10q-7 -108 -228 -116l-60 4q-230 6 -232 -26q19 -1140 63 -1143l39 -23q72 -4 475 61q89 -22 84 -96l-1 -20q-8 -120 -417 -94q-191 -15 -195 -78q-20 -99 -96 -94q-55 4 -132 139 l-40 2l-263 -43h-10q-87 56 -84 106q9 129 228 116l210 -14v10q5 1159 -72 1164l-483 -40q-56 4 -67 55zM225 1972q-1 48 30 87l28 11q170 -25 359 -258q7 -18 -24 -74q-67 -27 -247 106q-126 79 -146 128z" />
<glyph unicode="&#xcd;" horiz-adv-x="1429" d="M-20 1476q20 109 117 103q75 22 343 38q25 -1 342 19l30 -2q96 -6 250 29.5t199 -47.5v-10q-7 -108 -228 -116l-60 4q-230 6 -232 -26q19 -1140 63 -1143l39 -23q72 -4 475 61q89 -22 84 -96l-1 -20q-8 -120 -417 -94q-191 -15 -195 -78q-20 -99 -96 -94q-55 4 -132 139 l-40 2l-263 -43h-10q-87 56 -84 106q9 129 228 116l210 -14v10q5 1159 -72 1164l-483 -40q-56 4 -67 55zM665 1781q189 233 359 258l28 -11q30 -39 30 -87q-20 -49 -146 -128q-180 -133 -247 -106q-31 56 -24 74z" />
<glyph unicode="&#xce;" horiz-adv-x="1429" d="M-20 1476q20 109 117 103q75 22 343 38q25 -1 342 19l30 -2q96 -6 250 29.5t199 -47.5v-10q-7 -108 -228 -116l-60 4q-230 6 -232 -26q19 -1140 63 -1143l39 -23q72 -4 475 61q89 -22 84 -96l-1 -20q-8 -120 -417 -94q-191 -15 -195 -78q-20 -99 -96 -94q-55 4 -132 139 l-40 2l-263 -43h-10q-87 56 -84 106q9 129 228 116l210 -14v10q5 1159 -72 1164l-483 -40q-56 4 -67 55zM313 1867q0 61 113 126q47 38 87 143q28 25 56 25q94 -14 94 -88q174 -168 174 -218q0 -23 -50 -63h-25q-30 9 -162 149l-37 13q-41 -22 -150 -143l-31 -19h-25 q-21 0 -44 75z" />
<glyph unicode="&#xcf;" horiz-adv-x="1429" d="M-20 1476q20 109 117 103q75 22 343 38q25 -1 342 19l30 -2q96 -6 250 29.5t199 -47.5v-10q-7 -108 -228 -116l-60 4q-230 6 -232 -26q19 -1140 63 -1143l39 -23q72 -4 475 61q89 -22 84 -96l-1 -20q-8 -120 -417 -94q-191 -15 -195 -78q-20 -99 -96 -94q-55 4 -132 139 l-40 2l-263 -43h-10q-87 56 -84 106q9 129 228 116l210 -14v10q5 1159 -72 1164l-483 -40q-56 4 -67 55zM317 1902q0 71 158 89q63 0 63 -108q0 -97 -120 -139q-71 0 -101 158zM706 1895q0 72 158 89q64 0 64 -107q0 -97 -121 -140q-71 0 -101 158z" />
<glyph unicode="&#xd0;" horiz-adv-x="1397" d="M-41 775l12 27q295 124 594 88q17 -8 34 -70q-29 -66 -251 -95q-301 -55 -350 -34q-34 34 -39 84zM79 1446q0 76 180 180l140 30q612 0 783.5 -202.5t189 -520.5t-432.5 -767q-131 -111 -310 -160h-80q-236 0 -400 1280q-70 105 -70 160zM309 1346q0 -473 290 -1170 l10 -10h10q321 129 510 480q135 186 69 502t-709 338l-170 10z" />
<glyph unicode="&#xd1;" horiz-adv-x="1317" d="M-4 1450q23 110 100 110q210 -30 210 -200q60 -365 700 -960l70 -20q20 98 20 290v120l-50 700v50q0 108 110 170h20q78 0 100 -1010v-120q0 -430 -180 -430q-155 45 -740 710q-92 130 -110 130q-26 0 -40 -910q-32 -87 -60 -90h-60q-60 0 -60 210l70 1040q0 48 -100 210 zM167 1796v6q0 89 164 194l67 12q101 0 279 -103q39 -18 97 -18q80 0 218 133h24q59 0 73 -97v-6q0 -92 -321 -158h-7q-82 0 -327 121h-36q-73 0 -98 -103q-30 -42 -72 -42q-61 16 -61 61z" />
<glyph unicode="&#xd2;" d="M0 720v50q0 666 500 880l160 30h20q231 0 320 -250q120 -398 120 -650q0 -578 -550 -770l-130 -10q-334 47 -410 440q-30 103 -30 280zM140 660q0 -370 280 -490l90 -10q324 0 460 500v70q-44 650 -140 650q-86 70 -160 70q-36 0 -80 -40h-10l-130 30 q-310 -187 -310 -650v-130zM225 1972q-1 48 30 87l28 11q170 -25 359 -258q7 -18 -24 -74q-67 -27 -247 106q-126 79 -146 128z" />
<glyph unicode="&#xd3;" d="M0 720v50q0 666 500 880l160 30h20q231 0 320 -250q120 -398 120 -650q0 -578 -550 -770l-130 -10q-334 47 -410 440q-30 103 -30 280zM140 660q0 -370 280 -490l90 -10q324 0 460 500v70q-44 650 -140 650q-86 70 -160 70q-36 0 -80 -40h-10l-130 30 q-310 -187 -310 -650v-130zM512 1797q189 233 359 258l28 -11q30 -39 30 -87q-20 -49 -146 -128q-180 -133 -247 -106q-31 56 -24 74z" />
<glyph unicode="&#xd4;" d="M0 720v50q0 666 500 880l160 30h20q231 0 320 -250q120 -398 120 -650q0 -578 -550 -770l-130 -10q-334 47 -410 440q-30 103 -30 280zM140 660q0 -370 280 -490l90 -10q324 0 460 500v70q-44 650 -140 650q-86 70 -160 70q-36 0 -80 -40h-10l-130 30 q-310 -187 -310 -650v-130zM313 1867q0 61 113 126q47 38 87 143q28 25 56 25q94 -14 94 -88q174 -168 174 -218q0 -23 -50 -63h-25q-30 9 -162 149l-37 13q-41 -22 -150 -143l-31 -19h-25q-21 0 -44 75z" />
<glyph unicode="&#xd5;" d="M0 720v50q0 666 500 880l160 30h20q231 0 320 -250q120 -398 120 -650q0 -578 -550 -770l-130 -10q-334 47 -410 440q-30 103 -30 280zM140 660q0 -370 280 -490l90 -10q324 0 460 500v70q-44 650 -140 650q-86 70 -160 70q-36 0 -80 -40h-10l-130 30 q-310 -187 -310 -650v-130zM167 1796v6q0 89 164 194l67 12q101 0 279 -103q39 -18 97 -18q80 0 218 133h24q59 0 73 -97v-6q0 -92 -321 -158h-7q-82 0 -327 121h-36q-73 0 -98 -103q-30 -42 -72 -42q-61 16 -61 61z" />
<glyph unicode="&#xd6;" d="M0 720v50q0 666 500 880l160 30h20q231 0 320 -250q120 -398 120 -650q0 -578 -550 -770l-130 -10q-334 47 -410 440q-30 103 -30 280zM140 660q0 -370 280 -490l90 -10q324 0 460 500v70q-44 650 -140 650q-86 70 -160 70q-36 0 -80 -40h-10l-130 30 q-310 -187 -310 -650v-130zM337 1925q0 71 158 89q63 0 63 -108q0 -97 -120 -139q-71 0 -101 158zM726 1918q0 72 158 89q64 0 64 -107q0 -97 -121 -140q-71 0 -101 158z" />
<glyph unicode="&#xd7;" horiz-adv-x="1217" d="M109 1168q0 64 90 80h10q63 0 140 -150q158 -225 249 -317h10q104 93 147 277.5t116 184.5l50 10q80 0 80 -110l-263 -432v-20q94 -128 396 -441q58 -95 -32 -112q-94 0 -454 393h-10q-192 -244 -306 -440l-40 -30h-40q-53 27 -66.5 115t302.5 435v20l-309 407z" />
<glyph unicode="&#xd8;" d="M0 720v50q0 666 500 880l160 30h20q231 0 320 -250q120 -398 120 -650q0 -578 -550 -770l-130 -10q-334 47 -410 440q-30 103 -30 280zM13 110q0 94 270 410q262 372 770 1160q58 50 100 50q104 0 120 -120q0 -40 -210 -220q-763 -1060 -820 -1280q-58 -99 -110 -110 q-120 40 -120 110zM140 660q0 -370 280 -490l90 -10q324 0 460 500v70q-44 650 -140 650q-86 70 -160 70q-36 0 -80 -40h-10l-130 30q-310 -187 -310 -650v-130z" />
<glyph unicode="&#xd9;" horiz-adv-x="1391" d="M14 805l20 730q0 150 130 180q60 -20 60 -110q-50 -415 -50 -640q42 -730 324.5 -765t495.5 905q19 610 130 610h20q94 0 110 -130q-60 -384 -60 -630q0 -600 113.5 -645t36.5 -205q-138 -70 -260 230q-5 280 -50 280q-210 -610 -550 -610h-60q-291 -7 -400 700z M225 1972q-1 48 30 87l28 11q170 -25 359 -258q7 -18 -24 -74q-67 -27 -247 106q-126 79 -146 128z" />
<glyph unicode="&#xda;" horiz-adv-x="1391" d="M14 805l20 730q0 150 130 180q60 -20 60 -110q-50 -415 -50 -640q42 -730 324.5 -765t495.5 905q19 610 130 610h20q94 0 110 -130q-60 -384 -60 -630q0 -600 113.5 -645t36.5 -205q-138 -70 -260 230q-5 280 -50 280q-210 -610 -550 -610h-60q-291 -7 -400 700z M799 1846q189 233 359 258l28 -11q30 -39 30 -87q-20 -49 -146 -128q-180 -133 -247 -106q-31 56 -24 74z" />
<glyph unicode="&#xdb;" horiz-adv-x="1391" d="M14 805l20 730q0 150 130 180q60 -20 60 -110q-50 -415 -50 -640q42 -730 324.5 -765t495.5 905q19 610 130 610h20q94 0 110 -130q-60 -384 -60 -630q0 -600 113.5 -645t36.5 -205q-138 -70 -260 230q-5 280 -50 280q-210 -610 -550 -610h-60q-291 -7 -400 700z M313 1867q0 61 113 126q47 38 87 143q28 25 56 25q94 -14 94 -88q174 -168 174 -218q0 -23 -50 -63h-25q-30 9 -162 149l-37 13q-41 -22 -150 -143l-31 -19h-25q-21 0 -44 75z" />
<glyph unicode="&#xdc;" horiz-adv-x="1391" d="M14 805l20 730q0 150 130 180q60 -20 60 -110q-50 -415 -50 -640q42 -730 324.5 -765t495.5 905q19 610 130 610h20q94 0 110 -130q-60 -384 -60 -630q0 -600 113.5 -645t36.5 -205q-138 -70 -260 230q-5 280 -50 280q-210 -610 -550 -610h-60q-291 -7 -400 700z M401 1925q0 71 158 89q63 0 63 -108q0 -97 -120 -139q-71 0 -101 158zM790 1918q0 72 158 89q64 0 64 -107q0 -97 -121 -140q-71 0 -101 158z" />
<glyph unicode="&#xdd;" horiz-adv-x="1233" d="M-3 1618v20q0 49 90 100q115 -46 430 -480l210 -230q63 41 398 533q122 205 206 206.5t84 -106.5l-398 -543q-190 -273 -180 -278l-7 -392q27 -490 -100 -490q-80 0 -90 100l20 190v120q-1 485 -26 508q-480 585 -637 742zM779 1899q189 233 359 258l28 -11 q30 -39 30 -87q-20 -49 -146 -128q-180 -133 -247 -106q-31 56 -24 74z" />
<glyph unicode="&#xde;" horiz-adv-x="1601" d="M132.5 1796.5q47.5 64.5 137.5 11.5q37 -22 60 -94q6 -790 41 -1243q71 -410 23 -491q-35 -60 -159 -33q-39 36 -38 151q63 218 -23 1372q-89 262 -41.5 326.5zM215 1388v20q0 94 130 110q43 -30 289 -30q366 -81 658 -225.5t292 -484.5v-60q7 -291 -700 -400l-100 -10 l-372 -6q-150 0 -180 130q20 60 110 60q57 -24 282 -24q730 42 765 324.5t-905 495.5q-269 -11 -269 100z" />
<glyph unicode="&#xdf;" horiz-adv-x="1369" d="M57 1382q0 166 450 290q446 47 450 -310l-90 -330h110q350 0 350 -210v-60q0 -397 -216.5 -586t-353.5 -154q-153 44 -185 67t13 111t202 12h10q150 0 300 290q50 84 50 200v30q0 130 -130 130h-40q-195 0 -420 -310l-91 -84q-109 -26 -109 73.5t230 340.5 q160 235 160 390v70q-38 140 -160 140t-390 -170l-60 -10h-30q-23 0 -50 80zM59.5 1438.5q47.5 64.5 137.5 11.5q37 -22 60 -94q6 -790 41 -1243q71 -410 23 -491q-35 -60 -159 -33q-39 36 -38 151q63 218 -23 1372q-89 262 -41.5 326.5z" />
<glyph unicode="&#xe0;" horiz-adv-x="1253" d="M20 603q0 40 110 120q145 353 320 907q66 70 120 70q231 -8 322.5 -322t116.5 -428l15 -15q160 -26 160 -131l-90 -120l140 -510v-30q0 -70 -70 -70q-116 0 -240 560l-21 64q-226 -14 -643 -165q-30 -142 -30 -290v-90q0 -200 -130 -200q-86 0 -30 530zM225 1972 q-1 48 30 87l28 11q170 -25 359 -258q7 -18 -24 -74q-67 -27 -247 106q-126 79 -146 128zM330 733h30q494 98 494 131v10q-137 556 -234 556q-74 0 -290 -657v-40z" />
<glyph unicode="&#xe1;" horiz-adv-x="1253" d="M20 603q0 40 110 120q145 353 320 907q66 70 120 70q231 -8 322.5 -322t116.5 -428l15 -15q160 -26 160 -131l-90 -120l140 -510v-30q0 -70 -70 -70q-116 0 -240 560l-21 64q-226 -14 -643 -165q-30 -142 -30 -290v-90q0 -200 -130 -200q-86 0 -30 530zM330 733h30 q494 98 494 131v10q-137 556 -234 556q-74 0 -290 -657v-40zM540 1843q189 233 359 258l28 -11q30 -39 30 -87q-20 -49 -146 -128q-180 -133 -247 -106q-31 56 -24 74z" />
<glyph unicode="&#xe2;" horiz-adv-x="1253" d="M20 603q0 40 110 120q145 353 320 907q66 70 120 70q231 -8 322.5 -322t116.5 -428l15 -15q160 -26 160 -131l-90 -120l140 -510v-30q0 -70 -70 -70q-116 0 -240 560l-21 64q-226 -14 -643 -165q-30 -142 -30 -290v-90q0 -200 -130 -200q-86 0 -30 530zM313 1867 q0 61 113 126q47 38 87 143q28 25 56 25q94 -14 94 -88q174 -168 174 -218q0 -23 -50 -63h-25q-30 9 -162 149l-37 13q-41 -22 -150 -143l-31 -19h-25q-21 0 -44 75zM330 733h30q494 98 494 131v10q-137 556 -234 556q-74 0 -290 -657v-40z" />
<glyph unicode="&#xe3;" horiz-adv-x="1253" d="M20 603q0 40 110 120q145 353 320 907q66 70 120 70q231 -8 322.5 -322t116.5 -428l15 -15q160 -26 160 -131l-90 -120l140 -510v-30q0 -70 -70 -70q-116 0 -240 560l-21 64q-226 -14 -643 -165q-30 -142 -30 -290v-90q0 -200 -130 -200q-86 0 -30 530zM167 1796v6 q0 89 164 194l67 12q101 0 279 -103q39 -18 97 -18q80 0 218 133h24q59 0 73 -97v-6q0 -92 -321 -158h-7q-82 0 -327 121h-36q-73 0 -98 -103q-30 -42 -72 -42q-61 16 -61 61zM330 733h30q494 98 494 131v10q-137 556 -234 556q-74 0 -290 -657v-40z" />
<glyph unicode="&#xe4;" horiz-adv-x="1253" d="M20 603q0 40 110 120q145 353 320 907q66 70 120 70q231 -8 322.5 -322t116.5 -428l15 -15q160 -26 160 -131l-90 -120l140 -510v-30q0 -70 -70 -70q-116 0 -240 560l-21 64q-226 -14 -643 -165q-30 -142 -30 -290v-90q0 -200 -130 -200q-86 0 -30 530zM321 1947 q0 71 158 89q63 0 63 -108q0 -97 -120 -139q-71 0 -101 158zM330 733h30q494 98 494 131v10q-137 556 -234 556q-74 0 -290 -657v-40zM710 1940q0 72 158 89q64 0 64 -107q0 -97 -121 -140q-71 0 -101 158z" />
<glyph unicode="&#xe5;" horiz-adv-x="1253" d="M20 603q0 40 110 120q145 353 320 907q66 70 120 70q231 -8 322.5 -322t116.5 -428l15 -15q160 -26 160 -131l-90 -120l140 -510v-30q0 -70 -70 -70q-116 0 -240 560l-21 64q-226 -14 -643 -165q-30 -142 -30 -290v-90q0 -200 -130 -200q-86 0 -30 530zM330 733h30 q494 98 494 131v10q-137 556 -234 556q-74 0 -290 -657v-40zM458 1850v4q0 131 159 259l32 14q19 0 45 -64q87 -62 87 -113q0 -115 -168 -205l-41 -9q-114 18 -114 114zM526 1854q0 -8 32 -27h32q82 0 114 109v5q-22 41 -50 41h-5q-25 -32 -82 -32q-41 -65 -41 -96z" />
<glyph unicode="&#xe6;" horiz-adv-x="2053" d="M20 603q0 40 110 120q145 353 320 907q66 70 120 70q231 -8 322.5 -322t116.5 -428l15 -15q160 -26 160 -131l-90 -120l140 -510v-30q0 -70 -70 -70q-116 0 -240 560l-21 64q-226 -14 -643 -165q-30 -142 -30 -290v-90q0 -200 -130 -200q-86 0 -30 530zM330 733h30 q494 98 494 131v10q-137 556 -234 556q-74 0 -290 -657v-40zM939 557q-83 291 0.5 628t258 364t283.5 4q227 -52 465 -485l1 -41q-19 -84 -319 -92q-531 -73 -552 -112q81 -561 382 -690q229 -52 390 230q76 136 111 128l29 -6q72 -17 -32.5 -253.5t-496.5 -273.5l-80 8 q-304 69 -440 591zM1078 1039l19 -5q571 32 590 113q-151 219 -283 248q-244 55 -326 -356z" />
<glyph unicode="&#xe7;" horiz-adv-x="1109" d="M2 991v10q0 439 520 610l90 20q170 -27 170 -150q-14 -50 -70 -50l-160 10q-286 0 -390 -350l-10 -110q0 -381 340 -560l80 -20h90q106 0 250 230q103 100 150 100q40 -15 40 -30q-185 -470 -450 -470q-320 0 -484 200.5t-166 559.5zM346 -204q0 73 110 73h59 q89 19 89 111v29q0 44 -30 88q-59 95 -59 111q-3 110 74 110q111 0 169 -338l-15 -74q-123 -228 -287 -228q-92 0 -110 118z" />
<glyph unicode="&#xe8;" horiz-adv-x="1145" d="M52 649q-83 291 0.5 628t258 364t283.5 4q227 -52 465 -485l1 -41q-19 -84 -319 -92q-531 -73 -552 -112q81 -561 382 -690q229 -52 390 230q76 136 111 128l29 -6q72 -17 -32.5 -253.5t-496.5 -273.5l-80 8q-304 69 -440 591zM191 1131l19 -5q571 32 590 113 q-151 219 -283 248q-244 55 -326 -356zM226 2010q-1 48 30 87l28 11q170 -25 359 -258q7 -18 -24 -74q-67 -27 -247 106q-126 79 -146 128z" />
<glyph unicode="&#xe9;" horiz-adv-x="1145" d="M52 649q-83 291 0.5 628t258 364t283.5 4q227 -52 465 -485l1 -41q-19 -84 -319 -92q-531 -73 -552 -112q81 -561 382 -690q229 -52 390 230q76 136 111 128l29 -6q72 -17 -32.5 -253.5t-496.5 -273.5l-80 8q-304 69 -440 591zM191 1131l19 -5q571 32 590 113 q-151 219 -283 248q-244 55 -326 -356zM517 1835q189 233 359 258l28 -11q30 -39 30 -87q-20 -49 -146 -128q-180 -133 -247 -106q-31 56 -24 74z" />
<glyph unicode="&#xea;" horiz-adv-x="1145" d="M52 649q-83 291 0.5 628t258 364t283.5 4q227 -52 465 -485l1 -41q-19 -84 -319 -92q-531 -73 -552 -112q81 -561 382 -690q229 -52 390 230q76 136 111 128l29 -6q72 -17 -32.5 -253.5t-496.5 -273.5l-80 8q-304 69 -440 591zM191 1131l19 -5q571 32 590 113 q-151 219 -283 248q-244 55 -326 -356zM313 1867q0 61 113 126q47 38 87 143q28 25 56 25q94 -14 94 -88q174 -168 174 -218q0 -23 -50 -63h-25q-30 9 -162 149l-37 13q-41 -22 -150 -143l-31 -19h-25q-21 0 -44 75z" />
<glyph unicode="&#xeb;" horiz-adv-x="1145" d="M13 1970q0 71 158 89q63 0 63 -108q0 -97 -120 -139q-71 0 -101 158zM52 649q-83 291 0.5 628t258 364t283.5 4q227 -52 465 -485l1 -41q-19 -84 -319 -92q-531 -73 -552 -112q81 -561 382 -690q229 -52 390 230q76 136 111 128l29 -6q72 -17 -32.5 -253.5t-496.5 -273.5 l-80 8q-304 69 -440 591zM191 1131l19 -5q571 32 590 113q-151 219 -283 248q-244 55 -326 -356zM402 1963q0 72 158 89q64 0 64 -107q0 -97 -121 -140q-71 0 -101 158z" />
<glyph unicode="&#xec;" horiz-adv-x="508" d="M-79 1683q-1 48 30 87l28 11q169 -25 359 -258q7 -18 -24 -74q-67 -27 -247 106q-127 79 -146 128zM102 1156l1 10q3 44 86 73q155 -12 191 -868q32 -228 23 -353q-10 -119 -120 -111q-99 8 -60 507q-25 311 -121 742z" />
<glyph unicode="&#xed;" horiz-adv-x="508" d="M102 1156l1 10q3 44 86 73q155 -12 191 -868q32 -228 23 -353q-10 -119 -120 -111q-99 8 -60 507q-25 311 -121 742zM155 1503q189 233 359 258l28 -11q30 -39 30 -87q-20 -49 -146 -128q-180 -133 -247 -106q-31 56 -24 74z" />
<glyph unicode="&#xee;" horiz-adv-x="508" d="M-49 1380q0 61 113 126q47 38 87 143q28 25 56 25q94 -14 94 -88q174 -168 174 -218q0 -23 -50 -63h-25q-30 9 -162 149l-37 13q-41 -22 -150 -143l-31 -19h-25q-21 0 -44 75zM102 1156l1 10q3 44 86 73q155 -12 191 -868q32 -228 23 -353q-10 -119 -120 -111 q-99 8 -60 507q-25 311 -121 742z" />
<glyph unicode="&#xef;" horiz-adv-x="508" d="M-120 1586q0 71 158 89q63 0 63 -108q0 -97 -120 -139q-71 0 -101 158zM102 1156l1 10q3 44 86 73q155 -12 191 -868q32 -228 23 -353q-10 -119 -120 -111q-99 8 -60 507q-25 311 -121 742zM269 1579q0 72 158 89q64 0 64 -107q0 -97 -121 -140q-71 0 -101 158z" />
<glyph unicode="&#xf0;" d="M0 720v50q0 666 500 880l160 30h20q231 0 320 -250q120 -398 120 -650q0 -578 -550 -770l-130 -10q-334 47 -410 440q-30 103 -30 280zM118 687q0 -370 280 -490l90 -10q324 0 460 500v70q-44 650 -140 650q-86 70 -160 70q-36 0 -80 -40h-10l-130 30 q-310 -187 -310 -650v-130zM338 1947q-35 83 15 122l6 5q102 79 364 -14l72 -65q90 -115 129 -405q14 -61 65 -126q71 -90 73 -274t-222 169l-5 7q-73 93 -152 476l-32 41q-63 82 -201 19q-76 -2 -112 45zM386 1752q-14 78 221 120q362 63 457 44l4 -26q16 -87 -236 -131 q-220 -39 -361 -81q-50 -9 -85 74z" />
<glyph unicode="&#xf1;" horiz-adv-x="1108" d="M0 1620q13 80 70 80q107 0 190 -290q143 241 430.5 230.5t413.5 -403.5t132.5 -696t23.5 -373q0 -160 -140 -160h-30l-30 20q-27 963 -143 1197.5t-269 222t-236.5 -115t-91.5 -212.5q0 -237 110 -990v-10q0 -77 -120 -120q-144 0 -220 1280q-90 257 -90 340zM26 1900v6 q0 89 164 194l67 12q101 0 279 -103q39 -18 97 -18q80 0 218 133h24q59 0 73 -97v-6q0 -92 -321 -158h-7q-82 0 -327 121h-36q-73 0 -98 -103q-30 -42 -72 -42q-61 16 -61 61z" />
<glyph unicode="&#xf2;" d="M0 720v50q0 666 500 880l160 30h20q231 0 320 -250q120 -398 120 -650q0 -578 -550 -770l-130 -10q-334 47 -410 440q-30 103 -30 280zM140 660q0 -370 280 -490l90 -10q324 0 460 500v70q-44 650 -140 650q-86 70 -160 70q-36 0 -80 -40h-10l-130 30 q-310 -187 -310 -650v-130zM225 1972q-1 48 30 87l28 11q170 -25 359 -258q7 -18 -24 -74q-67 -27 -247 106q-126 79 -146 128z" />
<glyph unicode="&#xf3;" d="M0 720v50q0 666 500 880l160 30h20q231 0 320 -250q120 -398 120 -650q0 -578 -550 -770l-130 -10q-334 47 -410 440q-30 103 -30 280zM140 660q0 -370 280 -490l90 -10q324 0 460 500v70q-44 650 -140 650q-86 70 -160 70q-36 0 -80 -40h-10l-130 30 q-310 -187 -310 -650v-130zM512 1797q189 233 359 258l28 -11q30 -39 30 -87q-20 -49 -146 -128q-180 -133 -247 -106q-31 56 -24 74z" />
<glyph unicode="&#xf4;" d="M0 720v50q0 666 500 880l160 30h20q231 0 320 -250q120 -398 120 -650q0 -578 -550 -770l-130 -10q-334 47 -410 440q-30 103 -30 280zM140 660q0 -370 280 -490l90 -10q324 0 460 500v70q-44 650 -140 650q-86 70 -160 70q-36 0 -80 -40h-10l-130 30 q-310 -187 -310 -650v-130zM313 1867q0 61 113 126q47 38 87 143q28 25 56 25q94 -14 94 -88q174 -168 174 -218q0 -23 -50 -63h-25q-30 9 -162 149l-37 13q-41 -22 -150 -143l-31 -19h-25q-21 0 -44 75z" />
<glyph unicode="&#xf5;" d="M0 720v50q0 666 500 880l160 30h20q231 0 320 -250q120 -398 120 -650q0 -578 -550 -770l-130 -10q-334 47 -410 440q-30 103 -30 280zM140 660q0 -370 280 -490l90 -10q324 0 460 500v70q-44 650 -140 650q-86 70 -160 70q-36 0 -80 -40h-10l-130 30 q-310 -187 -310 -650v-130zM167 1796v6q0 89 164 194l67 12q101 0 279 -103q39 -18 97 -18q80 0 218 133h24q59 0 73 -97v-6q0 -92 -321 -158h-7q-82 0 -327 121h-36q-73 0 -98 -103q-30 -42 -72 -42q-61 16 -61 61z" />
<glyph unicode="&#xf6;" d="M0 720v50q0 666 500 880l160 30h20q231 0 320 -250q120 -398 120 -650q0 -578 -550 -770l-130 -10q-334 47 -410 440q-30 103 -30 280zM140 660q0 -370 280 -490l90 -10q324 0 460 500v70q-44 650 -140 650q-86 70 -160 70q-36 0 -80 -40h-10l-130 30 q-310 -187 -310 -650v-130zM279 1962q0 71 158 89q63 0 63 -108q0 -97 -120 -139q-71 0 -101 158zM668 1955q0 72 158 89q64 0 64 -107q0 -97 -121 -140q-71 0 -101 158z" />
<glyph unicode="&#xf7;" horiz-adv-x="1423" d="M62 755q30 150 120 150q198 -60 450 -60q364 0 560 100q116 0 160 -130q0 -120 -400 -120q-510 -20 -770 -50q-120 28 -120 110zM514.5 326.5q-23.5 181.5 226.5 208.5q100 0 100 -170q0 -153 -190 -220q-113 0 -136.5 181.5zM551.5 1204.5q-23.5 181.5 226.5 208.5 q100 0 100 -170q0 -153 -190 -220q-113 0 -136.5 181.5z" />
<glyph unicode="&#xf8;" d="M0 720v50q0 666 500 880l160 30h20q231 0 320 -250q120 -398 120 -650q0 -578 -550 -770l-130 -10q-334 47 -410 440q-30 103 -30 280zM13 110q0 94 270 410q262 372 770 1160q58 50 100 50q104 0 120 -120q0 -40 -210 -220q-763 -1060 -820 -1280q-58 -99 -110 -110 q-120 40 -120 110zM140 660q0 -370 280 -490l90 -10q324 0 460 500v70q-44 650 -140 650q-86 70 -160 70q-36 0 -80 -40h-10l-130 30q-310 -187 -310 -650v-130z" />
<glyph unicode="&#xf9;" horiz-adv-x="1391" d="M14 805l20 730q0 150 130 180q60 -20 60 -110q-50 -415 -50 -640q42 -730 324.5 -765t495.5 905q19 610 130 610h20q94 0 110 -130q-60 -384 -60 -630q0 -600 113.5 -645t36.5 -205q-138 -70 -260 230q-5 280 -50 280q-210 -610 -550 -610h-60q-291 -7 -400 700z M225 1972q-1 48 30 87l28 11q170 -25 359 -258q7 -18 -24 -74q-67 -27 -247 106q-126 79 -146 128z" />
<glyph unicode="&#xfa;" horiz-adv-x="1391" d="M14 805l20 730q0 150 130 180q60 -20 60 -110q-50 -415 -50 -640q42 -730 324.5 -765t495.5 905q19 610 130 610h20q94 0 110 -130q-60 -384 -60 -630q0 -600 113.5 -645t36.5 -205q-138 -70 -260 230q-5 280 -50 280q-210 -610 -550 -610h-60q-291 -7 -400 700z M799 1846q189 233 359 258l28 -11q30 -39 30 -87q-20 -49 -146 -128q-180 -133 -247 -106q-31 56 -24 74z" />
<glyph unicode="&#xfb;" horiz-adv-x="1391" d="M14 805l20 730q0 150 130 180q60 -20 60 -110q-50 -415 -50 -640q42 -730 324.5 -765t495.5 905q19 610 130 610h20q94 0 110 -130q-60 -384 -60 -630q0 -600 113.5 -645t36.5 -205q-138 -70 -260 230q-5 280 -50 280q-210 -610 -550 -610h-60q-291 -7 -400 700z M313 1867q0 61 113 126q47 38 87 143q28 25 56 25q94 -14 94 -88q174 -168 174 -218q0 -23 -50 -63h-25q-30 9 -162 149l-37 13q-41 -22 -150 -143l-31 -19h-25q-21 0 -44 75z" />
<glyph unicode="&#xfc;" horiz-adv-x="1391" d="M14 805l20 730q0 150 130 180q60 -20 60 -110q-50 -415 -50 -640q42 -730 324.5 -765t495.5 905q19 610 130 610h20q94 0 110 -130q-60 -384 -60 -630q0 -600 113.5 -645t36.5 -205q-138 -70 -260 230q-5 280 -50 280q-210 -610 -550 -610h-60q-291 -7 -400 700z M310 2001q0 71 158 89q63 0 63 -108q0 -97 -120 -139q-71 0 -101 158zM699 1994q0 72 158 89q64 0 64 -107q0 -97 -121 -140q-71 0 -101 158z" />
<glyph unicode="&#xfd;" horiz-adv-x="1266" d="M-9 1377q0 37 110 60q100 -26 100 -130l-40 -290q0 -570 131.5 -715t388.5 -103t320 428q-103 848 -103 981q0 100 80 100q201 0 253 -771q-13 -922 -50 -1130q-111 -940 -390 -940q-290 0 -370 460v10q0 140 90 140q29 0 90 -260q93 -180 170 -180q177 60 270 1140 l-20 20q-37 -70 -188.5 -158t-457.5 -35.5t-345 547.5t-39 826zM582 1789q189 233 359 258l28 -11q30 -39 30 -87q-20 -49 -146 -128q-180 -133 -247 -106q-31 56 -24 74z" />
<glyph unicode="&#xfe;" horiz-adv-x="1329" d="M81.5 1654.5q47.5 64.5 137.5 11.5q37 -22 60 -94q6 -790 41 -1243q71 -410 23 -491q-35 -60 -159 -33q-39 36 -38 151q63 218 -23 1372q-89 262 -41.5 326.5zM171 1212v20q0 94 130 110q43 -30 289 -30q60 -4 352 -148.5t292 -484.5v-60q7 -291 -398 -352l-100 -10 l-372 -6q-150 0 -180 130q20 60 110 60q57 -24 282 -24q428 -6 463 276.5t-599 418.5q-269 -11 -269 100z" />
<glyph unicode="&#xff;" horiz-adv-x="1266" d="M-9 1377q0 37 110 60q100 -26 100 -130l-40 -290q0 -570 131.5 -715t388.5 -103t320 428q-103 848 -103 981q0 100 80 100q201 0 253 -771q-13 -922 -50 -1130q-111 -940 -390 -940q-290 0 -370 460v10q0 140 90 140q29 0 90 -260q93 -180 170 -180q177 60 270 1140 l-20 20q-37 -70 -188.5 -158t-457.5 -35.5t-345 547.5t-39 826zM310 2001q0 71 158 89q63 0 63 -108q0 -97 -120 -139q-71 0 -101 158zM699 1994q0 72 158 89q64 0 64 -107q0 -97 -121 -140q-71 0 -101 158z" />
<glyph unicode="&#x152;" horiz-adv-x="2228" d="M0 720v50q0 666 500 880l160 30h20q231 0 320 -250q120 -398 120 -650q0 -578 -550 -770l-130 -10q-334 47 -410 440q-30 103 -30 280zM140 660q0 -370 280 -490l90 -10q324 0 460 500v70q-44 650 -140 650q-86 70 -160 70q-36 0 -80 -40h-10l-130 30 q-310 -187 -310 -650v-130zM860 1312q0 75 210 280q108 -130 190 -130q196 0 720 110h30q40 -16 40 -70v-30q-142 -140 -541 -161t-399 -49v-190q3 -50 20 -50q684 170 830 170q70 0 70 -70q0 -107 -217.5 -113.5t-702.5 -176.5v-240q13 -130 100 -130h110q170 0 810 70 q39 0 70 -40q-47 -160 -440 -160q-580 -34 -580 -150q0 -180 -110 -190q-100 0 -100 470l-20 640v120q0 16 -70 40z" />
<glyph unicode="&#x153;" horiz-adv-x="2136" d="M0 720v50q0 666 500 880l160 30h20q231 0 320 -250q120 -398 120 -650q0 -578 -550 -770l-130 -10q-334 47 -410 440q-30 103 -30 280zM140 660q0 -370 280 -490l90 -10q324 0 460 500v70q-44 650 -140 650q-86 70 -160 70q-36 0 -80 -40h-10l-130 30 q-310 -187 -310 -650v-130zM1012 661q-83 291 0.5 628t258 364t283.5 4q227 -52 465 -485l1 -41q-19 -84 -319 -92q-531 -73 -552 -112q81 -561 382 -690q229 -52 390 230q76 136 111 128l29 -6q72 -17 -32.5 -253.5t-496.5 -273.5l-80 8q-304 69 -440 591zM1151 1143l19 -5 q571 32 590 113q-151 219 -283 248q-244 55 -326 -356z" />
<glyph unicode="&#x178;" horiz-adv-x="1233" d="M-3 1618v20q0 49 90 100q115 -46 430 -480l210 -230q63 41 398 533q122 205 206 206.5t84 -106.5l-398 -543q-190 -273 -180 -278l-7 -392q27 -490 -100 -490q-80 0 -90 100l20 190v120q-1 485 -26 508q-480 585 -637 742zM371 1993q0 71 158 89q63 0 63 -108 q0 -97 -120 -139q-71 0 -101 158zM760 1986q0 72 158 89q64 0 64 -107q0 -97 -121 -140q-71 0 -101 158z" />
<glyph unicode="&#x2c6;" horiz-adv-x="1377" d="M191 1906q0 96 180 200q75 61 138 228q45 40 90 40q150 -22 150 -140q277 -268 277 -348q0 -37 -80 -100h-40q-47 15 -257 238l-60 20q-65 -35 -238 -228l-50 -30h-40q-34 0 -70 120z" />
<glyph unicode="&#x2dc;" horiz-adv-x="1024" d="M26 1415v6q0 89 164 194l67 12q101 0 279 -103q39 -18 97 -18q80 0 218 133h24q59 0 73 -97v-6q0 -92 -321 -158h-7q-82 0 -327 121h-36q-73 0 -98 -103q-30 -42 -72 -42q-61 16 -61 61z" />
<glyph unicode="&#x2000;" horiz-adv-x="1187" />
<glyph unicode="&#x2001;" horiz-adv-x="2374" />
<glyph unicode="&#x2002;" horiz-adv-x="1187" />
<glyph unicode="&#x2003;" horiz-adv-x="2374" />
<glyph unicode="&#x2004;" horiz-adv-x="791" />
<glyph unicode="&#x2005;" horiz-adv-x="593" />
<glyph unicode="&#x2006;" horiz-adv-x="395" />
<glyph unicode="&#x2007;" horiz-adv-x="395" />
<glyph unicode="&#x2008;" horiz-adv-x="296" />
<glyph unicode="&#x2009;" horiz-adv-x="474" />
<glyph unicode="&#x200a;" horiz-adv-x="131" />
<glyph unicode="&#x2010;" horiz-adv-x="1423" d="M95 925q30 150 120 150q198 -60 450 -60q364 0 560 100q116 0 160 -130q0 -120 -400 -120q-510 -20 -770 -50q-120 28 -120 110z" />
<glyph unicode="&#x2011;" horiz-adv-x="1423" d="M95 925q30 150 120 150q198 -60 450 -60q364 0 560 100q116 0 160 -130q0 -120 -400 -120q-510 -20 -770 -50q-120 28 -120 110z" />
<glyph unicode="&#x2012;" horiz-adv-x="1423" d="M95 925q30 150 120 150q198 -60 450 -60q364 0 560 100q116 0 160 -130q0 -120 -400 -120q-510 -20 -770 -50q-120 28 -120 110z" />
<glyph unicode="&#x2013;" horiz-adv-x="1618" d="M95 925q30 150 120 150q198 -60 450 -60q489 8 685 108q116 0 160 -130q0 -120 -400 -120q-635 -28 -895 -58q-120 28 -120 110z" />
<glyph unicode="&#x2014;" horiz-adv-x="1834" d="M95 925q30 150 120 150q198 -60 810 -68q364 0 560 100q116 0 160 -130q0 -120 -400 -120q-870 -12 -1130 -42q-120 28 -120 110z" />
<glyph unicode="&#x2018;" horiz-adv-x="386" d="M33 1698q17 45 60 70h30q180 -213 270 -500q0 -19 -50 -60q-72 0 -190 190q-120 247 -120 300z" />
<glyph unicode="&#x2019;" horiz-adv-x="488" d="M63 1345q90 287 270 500h30q43 -25 60 -70q0 -53 -120 -300q-118 -190 -190 -190q-50 41 -50 60z" />
<glyph unicode="&#x201a;" horiz-adv-x="557" d="M88 -204q90 287 270 500h30q43 -25 60 -70q0 -53 -120 -300q-118 -190 -190 -190q-50 41 -50 60z" />
<glyph unicode="&#x201c;" horiz-adv-x="672" d="M110 1052v40q0 390 200 640h30q36 -19 50 -60q-100 -183 -100 -640q-17 -70 -80 -70h-10q-90 0 -90 90zM410 1152q0 600 120 600h40q80 -7 80 -80l-70 -550q-48 -61 -100 -70q-70 26 -70 100z" />
<glyph unicode="&#x201d;" horiz-adv-x="672" d="M110 1672q0 73 80 80h40q120 0 120 -600q0 -74 -70 -100q-52 9 -100 70zM370 1672q14 41 50 60h30q200 -250 200 -640v-40q0 -90 -90 -90h-10q-63 0 -80 70q0 457 -100 640z" />
<glyph unicode="&#x201e;" horiz-adv-x="672" d="M101 317q0 73 80 80h40q120 0 120 -600q0 -74 -70 -100q-52 9 -100 70zM361 317q14 41 50 60h30q200 -250 200 -640v-40q0 -90 -90 -90h-10q-63 0 -80 70q0 457 -100 640z" />
<glyph unicode="&#x2022;" horiz-adv-x="557" d="M107 1306q0 124 274 154q124 0 110 -187q0 -167 -208 -241q-124 0 -176 274z" />
<glyph unicode="&#x2026;" horiz-adv-x="1773" d="M172 246q0 113 250 140q100 0 100 -170q0 -153 -190 -220q-113 0 -160 250zM750 263q0 113 250 140q100 0 100 -170q0 -153 -190 -220q-113 0 -160 250zM1345 246q0 113 250 140q100 0 100 -170q0 -153 -190 -220q-113 0 -160 250z" />
<glyph unicode="&#x202f;" horiz-adv-x="474" />
<glyph unicode="&#x2039;" horiz-adv-x="1225" d="M127 800q0 166 310 200l640 360h30q80 -63 80 -100q0 -31 -240 -150q-460 -275 -460 -320q314 -374 490 -460q37 -50 60 -150q-24 -110 -90 -110h-10q-69 0 -270 270q-362 370 -490 370q-50 54 -50 90z" />
<glyph unicode="&#x203a;" horiz-adv-x="1234" d="M127 1204q0 37 80 100h30l640 -360q310 -34 310 -200q0 -36 -50 -90q-128 0 -490 -370q-201 -270 -270 -270h-10q-66 0 -90 110q23 100 60 150q176 86 490 460q0 45 -460 320q-240 119 -240 150z" />
<glyph unicode="&#x205f;" horiz-adv-x="593" />
<glyph unicode="&#x20ac;" horiz-adv-x="1451" d="M18 912q0 90 270 90q418 0 520 -40v-30q0 -100 -290 -100q-254 0 -420 -20q-57 0 -80 100zM158 672q0 130 650 130h90q100 -7 100 -60q0 -103 -680 -150l-80 -10q-80 0 -80 90zM223 976v30q63 559 646 677h40q314 -50 404 -182l10 -10v-10q0 -67 -100 -80l-230 110 l-80 10q-462 -46 -511 -539q11 -435 178.5 -635.5t406 -184t337.5 15.5t-45 -164q-406 -57 -702 113.5t-344 688.5z" />
<glyph unicode="&#x2122;" horiz-adv-x="1497" />
<glyph unicode="&#x25fc;" horiz-adv-x="1710" d="M0 0v1710h1710v-1710h-1710z" />
</font>
</defs>
</svg>
